<svg width="30" height="30" viewBox="0 0 30 30" fill="none" xmlns="http://www.w3.org/2000/svg">
<path d="M20.5487 29.119H3.8748V7.39687C3.8748 7.15365 3.67764 6.95654 3.43447 6.95654C3.19131 6.95654 2.99414 7.15365 2.99414 7.39687V29.2658C2.99414 29.6705 3.32338 29.9997 3.72803 29.9997H20.5487C20.7918 29.9997 20.9889 29.8026 20.989 29.5594C20.989 29.3161 20.7918 29.119 20.5487 29.119Z" fill="#E0E8E3"/>
<path d="M26.8764 3.9815L23.1337 0.133359C23.0508 0.0481055 22.9369 0 22.818 0H3.72217C3.31752 0 2.98834 0.329297 2.98828 0.733945V4.1683C2.98828 4.41152 3.18545 4.60863 3.42861 4.60863C3.67178 4.60863 3.86895 4.41152 3.86895 4.1683V0.880723H22.6321L26.1205 4.46736V29.1193H23.625C23.3818 29.1193 23.1847 29.3164 23.1847 29.5597C23.1847 29.8029 23.3818 30 23.625 30H26.2672C26.6719 30 27.0011 29.6708 27.0011 29.2662V4.28848C27.0011 4.17381 26.9564 4.06371 26.8764 3.9815Z" fill="#E0E8E3"/>
<path d="M26.8815 3.98196L23.1387 0.133818C23.0138 0.00538078 22.8234 -0.0345802 22.6574 0.0328612C22.4914 0.100303 22.3828 0.261611 22.3828 0.44085V4.28894C22.3828 4.53216 22.58 4.72927 22.8231 4.72927H26.5659C26.7429 4.72927 26.9027 4.62333 26.9715 4.46026C27.0403 4.29726 27.0049 4.10876 26.8815 3.98196ZM23.2635 3.8486V1.52501L25.5234 3.8486H23.2635Z" fill="#E0E8E3"/>
<path d="M17.5025 5.72731C17.5025 4.34624 16.3789 3.22266 14.9978 3.22266C13.6167 3.22266 12.4932 4.34624 12.4932 5.72731C12.4932 7.10838 13.6167 8.23174 14.9978 8.23174C16.3789 8.23174 17.5025 7.10838 17.5025 5.72731ZM13.381 5.72731C13.381 4.83559 14.1063 4.11049 14.9978 4.11049C15.8893 4.11049 16.6146 4.83582 16.6146 5.72731C16.6146 6.6188 15.8893 7.34413 14.9978 7.34413C14.1063 7.34413 13.381 6.6188 13.381 5.72731Z" fill="#E0E8E3"/>
<path d="M21.0546 6.17116C21.2999 6.17116 21.4986 5.97249 21.4986 5.72736C21.4986 5.48199 21.2999 5.28333 21.0546 5.28333H18.9731C18.728 5.28333 18.5293 5.48199 18.5293 5.72736C18.5293 5.97249 18.728 6.17116 18.9731 6.17116H21.0546Z" fill="#E0E8E3"/>
<path d="M11.0216 5.28333H8.94012C8.69499 5.28333 8.49609 5.48199 8.49609 5.72736C8.49609 5.97249 8.69499 6.17116 8.94012 6.17116H11.0216C11.2667 6.17116 11.4654 5.97249 11.4654 5.72736C11.4654 5.48199 11.2667 5.28333 11.0216 5.28333Z" fill="#E0E8E3"/>
<path d="M6.67969 11.338C6.67969 11.5807 6.98161 11.7773 7.35415 11.7773H22.6459C23.0184 11.7773 23.3203 11.5807 23.3203 11.338C23.3203 11.0951 23.0184 10.8984 22.6459 10.8984H7.35415C6.98161 10.8984 6.67969 11.0951 6.67969 11.338Z" fill="#E0E8E3"/>
<path d="M22.6455 13.0664H7.35415C6.98161 13.0664 6.67969 13.2631 6.67969 13.5059C6.67969 13.7486 6.98161 13.9453 7.35415 13.9453H22.6455C23.0184 13.9453 23.3203 13.7486 23.3203 13.5059C23.3203 13.2631 23.0184 13.0664 22.6455 13.0664Z" fill="#E0E8E3"/>
<path d="M22.6455 15.2344H7.35415C6.98161 15.2344 6.67969 15.431 6.67969 15.6737C6.67969 15.9166 6.98161 16.1133 7.35415 16.1133H22.6455C23.0184 16.1133 23.3203 15.9166 23.3203 15.6737C23.3203 15.431 23.0184 15.2344 22.6455 15.2344Z" fill="#E0E8E3"/>
<path d="M22.6455 17.3438H7.35415C6.98161 17.3438 6.67969 17.5404 6.67969 17.7833C6.67969 18.026 6.98161 18.2227 7.35415 18.2227H22.6455C23.0184 18.2227 23.3203 18.026 23.3203 17.7833C23.3203 17.5404 23.0184 17.3438 22.6455 17.3438Z" fill="#E0E8E3"/>
<path d="M22.6455 19.5117H7.35415C6.98161 19.5117 6.67969 19.7084 6.67969 19.9513C6.67969 20.194 6.98161 20.3906 7.35415 20.3906H22.6455C23.0184 20.3906 23.3203 20.194 23.3203 19.9513C23.3203 19.7084 23.0184 19.5117 22.6455 19.5117Z" fill="#E0E8E3"/>
<path d="M23.1136 23.1866C22.9238 23.0311 22.6444 23.0588 22.4887 23.2484L20.3698 25.8327L19.3874 24.87C19.2123 24.6985 18.9312 24.7013 18.7596 24.8764C18.5881 25.0515 18.5909 25.3326 18.766 25.504L19.866 26.5822C20.175 26.8851 20.6769 26.8578 20.9516 26.5232L23.1754 23.8114C23.3308 23.6219 23.3031 23.342 23.1136 23.1866Z" fill="#E0E8E3"/>
</svg>
