<svg width="30" height="30" viewBox="0 0 30 30" fill="none" xmlns="http://www.w3.org/2000/svg">
<g clip-path="url(#clip0)">
<path d="M14.0625 22.5C14.3214 22.5 14.5312 22.2901 14.5312 22.0312C14.5312 21.7724 14.3214 21.5625 14.0625 21.5625C13.8036 21.5625 13.5938 21.7724 13.5938 22.0312C13.5938 22.2901 13.8036 22.5 14.0625 22.5Z" fill="#E0E8E3"/>
<path d="M15.4687 19.6873L8.90625 19.6874C8.78193 19.6874 8.6627 19.7368 8.57479 19.8247C8.48689 19.9126 8.4375 20.0319 8.4375 20.1562V22.0312C8.4375 22.1555 8.48689 22.2747 8.57479 22.3626C8.6627 22.4505 8.78193 22.4999 8.90625 22.4999H9.45469L10.7893 29.6176C10.8094 29.725 10.8665 29.8221 10.9506 29.8919C11.0348 29.9617 11.1407 29.9999 11.25 29.9999H18.75C18.8593 29.9999 18.9652 29.9617 19.0494 29.8919C19.1335 29.8221 19.1906 29.725 19.2107 29.6176L20.5453 22.4999H21.0938C21.2181 22.4999 21.3373 22.4505 21.4252 22.3626C21.5131 22.2747 21.5625 22.1555 21.5625 22.0312V20.1562C21.5625 20.0319 21.5131 19.9126 21.4252 19.8247C21.3373 19.7368 21.2181 19.6874 21.0938 19.6874L15.4687 19.6873ZM20.625 20.6249V21.5624H15.9375C15.8132 21.5624 15.694 21.6118 15.606 21.6997C15.5181 21.7876 15.4687 21.9069 15.4687 22.0312C15.4687 22.1555 15.5181 22.2747 15.606 22.3626C15.694 22.4505 15.8132 22.4999 15.9375 22.4999H19.5914L18.3609 29.0624H11.6391L10.4086 22.4999H11.25C11.3743 22.4999 11.4935 22.4505 11.5815 22.3626C11.6694 22.2747 11.7188 22.1555 11.7188 22.0312C11.7188 21.9069 11.6694 21.7876 11.5815 21.6997C11.4935 21.6118 11.3743 21.5624 11.25 21.5624H9.375V20.6249H20.625Z" fill="#E0E8E3"/>
<path d="M14.5692 19.7271C14.5692 20.179 14.7679 20.545 15.013 20.545C15.2584 20.545 15.457 20.179 15.457 19.7271L15.457 15.8931C15.457 15.4416 15.2584 15.0757 15.013 15.0757C14.7679 15.0757 14.5692 15.4416 14.5692 15.8931L14.5692 19.7271Z" fill="#E0E8E3"/>
<path d="M24.9873 10.1866C24.9485 10.0381 24.8262 9.92473 24.6728 9.89516L23.3066 9.6318L23.839 7.37874C23.8669 7.26064 23.8382 7.13652 23.7613 7.04168C23.6844 6.94679 23.5673 6.89148 23.4438 6.89148C23.413 6.89148 23.3823 6.89489 23.3523 6.90174L21.0547 7.42359L20.7862 6.08371C20.756 5.93332 20.6404 5.81331 20.489 5.77531C20.3376 5.73719 20.1774 5.78795 20.0772 5.90562L18.2227 8.08377L19.0377 2.43426C19.0591 2.28517 18.9929 2.137 18.8667 2.05146C18.7404 1.96592 18.5756 1.95769 18.4411 2.03012L16.9459 2.83563L15.3484 0.194711C15.2754 0.0739697 15.1429 0 14.9998 0C14.8567 0 14.7242 0.074008 14.6511 0.194711L13.0537 2.83556L11.5586 2.03009C11.424 1.95761 11.2593 1.96589 11.133 2.05142C11.0067 2.13696 10.9405 2.28513 10.962 2.43418L11.7767 8.08292L9.92291 5.90555C9.82275 5.78791 9.66244 5.73715 9.51111 5.77523C9.3597 5.81327 9.24408 5.93324 9.21392 6.08363L8.94537 7.42351L6.64732 6.90167C6.51111 6.87072 6.36814 6.91086 6.26916 7.00789C6.17025 7.10488 6.12935 7.24508 6.16092 7.37874L6.69342 9.6318L5.32717 9.89516C5.17381 9.92473 5.05146 10.0381 5.01268 10.1866C4.97393 10.335 5.02564 10.4922 5.14561 10.5904L10.6647 15.1099L10.1434 16.0844C10.0701 16.2215 10.0846 16.3881 10.1807 16.511C10.2769 16.6339 10.4371 16.691 10.5912 16.657L14.5946 15.7755L15.4054 15.7756C16.9677 16.1198 19.4059 16.657 19.4059 16.657C19.4355 16.6635 19.4652 16.6667 19.4948 16.6667C19.6191 16.6667 19.7386 16.6105 19.8163 16.5112C19.9125 16.3883 19.9272 16.2219 19.8539 16.0847L19.334 15.1106L24.8545 10.5904C24.9744 10.4922 25.0261 10.335 24.9873 10.1866ZM18.6063 14.6707C18.6022 14.6732 18.5983 14.6757 18.5943 14.6783C18.4234 14.7917 18.3666 15.0128 18.4623 15.192L18.7297 15.693L15.4054 14.9606C15.0783 14.917 14.5946 14.9606 14.5946 14.9606L11.2685 15.693L11.5348 15.1952C11.6235 15.0293 11.5822 14.8253 11.4356 14.7053L6.31787 10.5145L7.26127 10.3326C7.36908 10.3119 7.46369 10.249 7.52338 10.1586C7.5831 10.0682 7.60279 9.95779 7.57799 9.85279L7.09756 7.82002L9.17084 8.29085C9.27787 8.31517 9.39044 8.29583 9.48259 8.23726C9.57482 8.17869 9.63888 8.08595 9.66001 7.98022L9.84544 7.05516L12.0661 9.66341C12.1821 9.7997 12.3763 9.84402 12.5418 9.77189C12.7074 9.69976 12.804 9.52876 12.7786 9.35293L11.8783 3.10945L13.0071 3.7176C13.1988 3.82083 13.4394 3.75644 13.5509 3.57196L14.9998 1.17677L16.4486 3.57196C16.5601 3.7564 16.8008 3.82083 16.9925 3.7176L18.1213 3.10949L17.2205 9.35378C17.1951 9.5296 17.2917 9.70068 17.4573 9.77277C17.6228 9.8449 17.817 9.80062 17.9331 9.66429L20.1545 7.0552L20.34 7.9803C20.3611 8.08606 20.4252 8.1788 20.5174 8.23734C20.6096 8.29591 20.7221 8.31525 20.8292 8.29093L22.9025 7.82002L22.422 9.85287C22.3972 9.95787 22.4169 10.0682 22.4766 10.1587C22.5364 10.2491 22.631 10.3119 22.7388 10.3327L23.6821 10.5146L18.6063 14.6707Z" fill="#E0E8E3"/>
</g>
<defs>
<clipPath id="clip0">
<rect width="30" height="30" fill="white"/>
</clipPath>
</defs>
</svg>
