<svg display="none" xmlns="http://www.w3.org/2000/svg"> 

	<symbol id="totalAuto" viewBox="0 0 30 30">
		<g clip-path="url(#clip0)">
			<path d="M20.6935 0H9.30408C8.09014 0 7.10254 0.987598 7.10254 2.20154V7.55086C7.10254 7.79402 7.29971 7.99119 7.54287 7.99119C7.78604 7.99119 7.9832 7.79402 7.9832 7.55086V2.20154C7.9832 1.47316 8.57576 0.880605 9.30414 0.880605H10.9285L11.1176 1.52813C11.3174 2.21227 11.9547 2.69004 12.6674 2.69004H17.3303C18.043 2.69004 18.6803 2.21221 18.8801 1.52807L19.0691 0.880605H20.6936C21.422 0.880605 22.0145 1.47316 22.0145 2.20154V20.9963C22.0145 21.2395 22.2116 21.4366 22.4549 21.4366C22.6981 21.4366 22.8952 21.2395 22.8952 20.9963V2.20154C22.8951 0.987598 21.9075 0 20.6935 0V0ZM18.0347 1.28127C17.9439 1.59223 17.6542 1.80943 17.3303 1.80943H12.6673C12.3433 1.80943 12.0537 1.59223 11.9629 1.28127L11.8459 0.880605H18.1517L18.0347 1.28127Z"/>
			<path d="M22.4558 22.3171C22.2127 22.3171 22.0155 22.5143 22.0155 22.7574V27.7982C22.0155 28.5266 21.4229 29.1192 20.6946 29.1192H9.30512C8.57674 29.1192 7.98418 28.5266 7.98418 27.7982V9.31191C7.98418 9.06875 7.78707 8.87158 7.54385 8.87158C7.30068 8.87158 7.10352 9.06875 7.10352 9.31191V27.7982C7.10352 29.0122 8.09111 29.9998 9.30506 29.9998H20.6945C21.9085 29.9998 22.8961 29.0122 22.8961 27.7982V22.7574C22.8961 22.5142 22.699 22.3171 22.4558 22.3171Z"/>
			<rect x="12.1875" y="8.02734" width="5.68359" height="0.878906" rx="0.439453"/>
			<rect x="12.1875" y="9.31641" width="5.68359" height="0.878906" rx="0.439453"/>
			<rect x="9.66797" y="12.5977" width="10.957" height="0.878906" rx="0.439453"/>
			<rect x="9.66797" y="14.2969" width="10.957" height="0.878906" rx="0.439453"/>
			<rect x="9.66797" y="15.9961" width="10.957" height="0.878906" rx="0.439453"/>
			<rect x="9.66797" y="17.6953" width="10.957" height="0.878906" rx="0.439453"/>
			<rect x="9.66797" y="19.3945" width="10.957" height="0.878906" rx="0.439453"/>
			<rect x="9.66797" y="21.0938" width="7.14844" height="0.878906" rx="0.439453"/>
			<rect x="17.4023" y="21.0938" width="3.22266" height="0.878906" rx="0.439453"/>
		</g>
	</symbol>

	<symbol id="totalBriefing" viewBox="0 0 30 30">
		<path d="M20.5487 29.119H3.8748V7.39687C3.8748 7.15365 3.67764 6.95654 3.43447 6.95654C3.19131 6.95654 2.99414 7.15365 2.99414 7.39687V29.2658C2.99414 29.6705 3.32338 29.9997 3.72803 29.9997H20.5487C20.7918 29.9997 20.9889 29.8026 20.989 29.5594C20.989 29.3161 20.7918 29.119 20.5487 29.119Z"/>
		<path d="M26.8764 3.9815L23.1337 0.133359C23.0508 0.0481055 22.9369 0 22.818 0H3.72217C3.31752 0 2.98834 0.329297 2.98828 0.733945V4.1683C2.98828 4.41152 3.18545 4.60863 3.42861 4.60863C3.67178 4.60863 3.86895 4.41152 3.86895 4.1683V0.880723H22.6321L26.1205 4.46736V29.1193H23.625C23.3818 29.1193 23.1847 29.3164 23.1847 29.5597C23.1847 29.8029 23.3818 30 23.625 30H26.2672C26.6719 30 27.0011 29.6708 27.0011 29.2662V4.28848C27.0011 4.17381 26.9564 4.06371 26.8764 3.9815Z"/>
		<path d="M26.8815 3.98196L23.1387 0.133818C23.0138 0.00538078 22.8234 -0.0345802 22.6574 0.0328612C22.4914 0.100303 22.3828 0.261611 22.3828 0.44085V4.28894C22.3828 4.53216 22.58 4.72927 22.8231 4.72927H26.5659C26.7429 4.72927 26.9027 4.62333 26.9715 4.46026C27.0403 4.29726 27.0049 4.10876 26.8815 3.98196ZM23.2635 3.8486V1.52501L25.5234 3.8486H23.2635Z"/>
		<path d="M17.5025 5.72731C17.5025 4.34624 16.3789 3.22266 14.9978 3.22266C13.6167 3.22266 12.4932 4.34624 12.4932 5.72731C12.4932 7.10838 13.6167 8.23174 14.9978 8.23174C16.3789 8.23174 17.5025 7.10838 17.5025 5.72731ZM13.381 5.72731C13.381 4.83559 14.1063 4.11049 14.9978 4.11049C15.8893 4.11049 16.6146 4.83582 16.6146 5.72731C16.6146 6.6188 15.8893 7.34413 14.9978 7.34413C14.1063 7.34413 13.381 6.6188 13.381 5.72731Z"/>
		<path d="M21.0546 6.17116C21.2999 6.17116 21.4986 5.97249 21.4986 5.72736C21.4986 5.48199 21.2999 5.28333 21.0546 5.28333H18.9731C18.728 5.28333 18.5293 5.48199 18.5293 5.72736C18.5293 5.97249 18.728 6.17116 18.9731 6.17116H21.0546Z"/>
		<path d="M11.0216 5.28333H8.94012C8.69499 5.28333 8.49609 5.48199 8.49609 5.72736C8.49609 5.97249 8.69499 6.17116 8.94012 6.17116H11.0216C11.2667 6.17116 11.4654 5.97249 11.4654 5.72736C11.4654 5.48199 11.2667 5.28333 11.0216 5.28333Z"/>
		<path d="M6.67969 11.338C6.67969 11.5807 6.98161 11.7773 7.35415 11.7773H22.6459C23.0184 11.7773 23.3203 11.5807 23.3203 11.338C23.3203 11.0951 23.0184 10.8984 22.6459 10.8984H7.35415C6.98161 10.8984 6.67969 11.0951 6.67969 11.338Z"/>
		<path d="M22.6455 13.0664H7.35415C6.98161 13.0664 6.67969 13.2631 6.67969 13.5059C6.67969 13.7486 6.98161 13.9453 7.35415 13.9453H22.6455C23.0184 13.9453 23.3203 13.7486 23.3203 13.5059C23.3203 13.2631 23.0184 13.0664 22.6455 13.0664Z"/>
		<path d="M22.6455 15.2344H7.35415C6.98161 15.2344 6.67969 15.431 6.67969 15.6737C6.67969 15.9166 6.98161 16.1133 7.35415 16.1133H22.6455C23.0184 16.1133 23.3203 15.9166 23.3203 15.6737C23.3203 15.431 23.0184 15.2344 22.6455 15.2344Z"/>
		<path d="M22.6455 17.3438H7.35415C6.98161 17.3438 6.67969 17.5404 6.67969 17.7833C6.67969 18.026 6.98161 18.2227 7.35415 18.2227H22.6455C23.0184 18.2227 23.3203 18.026 23.3203 17.7833C23.3203 17.5404 23.0184 17.3438 22.6455 17.3438Z"/>
		<path d="M22.6455 19.5117H7.35415C6.98161 19.5117 6.67969 19.7084 6.67969 19.9513C6.67969 20.194 6.98161 20.3906 7.35415 20.3906H22.6455C23.0184 20.3906 23.3203 20.194 23.3203 19.9513C23.3203 19.7084 23.0184 19.5117 22.6455 19.5117Z"/>
		<path d="M23.1136 23.1866C22.9238 23.0311 22.6444 23.0588 22.4887 23.2484L20.3698 25.8327L19.3874 24.87C19.2123 24.6985 18.9312 24.7013 18.7596 24.8764C18.5881 25.0515 18.5909 25.3326 18.766 25.504L19.866 26.5822C20.175 26.8851 20.6769 26.8578 20.9516 26.5232L23.1754 23.8114C23.3308 23.6219 23.3031 23.342 23.1136 23.1866Z"/>
	</symbol>

	<symbol id="totalCard" viewBox="0 0 30 30">
		<g clip-path="url(#clip0)">
			<path d="M27.407 4.92188H2.59277C1.16318 4.92188 0 6.08505 0 7.51488V22.4675C0 23.8973 1.16318 25.0605 2.59277 25.0605H27.407C28.8368 25.0605 30 23.8973 30 22.4675V7.51488C30 6.08505 28.8368 4.92188 27.407 4.92188V4.92188ZM29.109 22.4675C29.109 23.4059 28.3454 24.1695 27.407 24.1695H2.59277C1.65459 24.1695 0.891037 23.4059 0.891037 22.4675V7.51488C0.891037 6.57646 1.65459 5.81291 2.59277 5.81291H27.407C28.3454 5.81291 29.109 6.57646 29.109 7.51488V22.4675Z"/>
			<path d="M13.3369 8.48621H3.00032C2.75427 8.48621 2.55469 8.68556 2.55469 8.93184V10.0009C2.55469 10.247 2.75427 10.4464 3.00032 10.4464C3.24637 10.4464 3.44595 10.247 3.44595 10.0009V9.37724H12.8914V20.2487H3.44595V11.7832C3.44595 11.5372 3.24637 11.3376 3.00032 11.3376C2.75427 11.3376 2.55469 11.5372 2.55469 11.7832V20.6941C2.55469 20.9401 2.75427 21.1397 3.00032 21.1397H13.3369C13.5829 21.1397 13.7825 20.9401 13.7825 20.6941V8.93184C13.7825 8.68556 13.5829 8.48621 13.3369 8.48621Z"/>
			<path d="M27.1188 9.51929H15.9505C15.7045 9.51929 15.5049 9.71887 15.5049 9.96492C15.5049 10.211 15.7045 10.4103 15.9505 10.4103H27.1188C27.3649 10.4103 27.5642 10.211 27.5642 9.96492C27.5642 9.71887 27.3649 9.51929 27.1188 9.51929Z"/>
			<path d="M27.1192 12.7516H24.6241C24.3781 12.7516 24.1787 12.9509 24.1787 13.197C24.1787 13.443 24.3781 13.6426 24.6241 13.6426H27.1192C27.3652 13.6426 27.5646 13.443 27.5646 13.197C27.5646 12.9509 27.3652 12.7516 27.1192 12.7516Z"/>
			<path d="M15.9505 13.6426H22.8415C23.0875 13.6426 23.2871 13.443 23.2871 13.197C23.2871 12.9509 23.0875 12.7516 22.8415 12.7516H15.9505C15.7045 12.7516 15.5049 12.9509 15.5049 13.197C15.5049 13.443 15.7045 13.6426 15.9505 13.6426Z"/>
			<path d="M27.1188 15.9836H15.9505C15.7045 15.9836 15.5049 16.183 15.5049 16.429C15.5049 16.6751 15.7045 16.8747 15.9505 16.8747H27.1188C27.3649 16.8747 27.5642 16.6751 27.5642 16.429C27.5642 16.183 27.3649 15.9836 27.1188 15.9836Z"/>
			<path d="M22.0099 19.2156H15.9505C15.7045 19.2156 15.5049 19.4149 15.5049 19.661C15.5049 19.907 15.7045 20.1066 15.9505 20.1066H22.0099C22.256 20.1066 22.4553 19.907 22.4553 19.661C22.4553 19.4149 22.256 19.2156 22.0099 19.2156Z"/>
			<path d="M5.0498 19.2685C5.0498 19.5146 5.24939 19.7139 5.49544 19.7139C5.74149 19.7139 5.94107 19.5146 5.94107 19.2685C5.94107 18.0401 6.94037 17.0408 8.16878 17.0408C9.39719 17.0408 10.3965 18.0401 10.3965 19.2685C10.3965 19.5146 10.5958 19.7139 10.8419 19.7139C11.0879 19.7139 11.2875 19.5146 11.2875 19.2685C11.2875 18.1351 10.6798 17.1413 9.77324 16.5952C10.6798 16.0491 11.2875 15.0553 11.2875 13.9218C11.2875 12.2023 9.88837 10.8031 8.16878 10.8031C6.44896 10.8031 5.0498 12.2023 5.0498 13.9218C5.0498 15.0553 5.65771 16.0491 6.56432 16.5952C5.65771 17.1413 5.0498 18.1351 5.0498 19.2685ZM5.94107 13.9218C5.94107 12.6934 6.94037 11.6941 8.16878 11.6941C9.39719 11.6941 10.3965 12.6934 10.3965 13.9218C10.3965 15.1503 9.39719 16.1496 8.16878 16.1496C6.94037 16.1496 5.94107 15.1503 5.94107 13.9218Z"/>
		</g>
	</symbol>

	<symbol id="totalPot" viewBox="0 0 30 30">
		<g clip-path="url(#clip0)">
			<path d="M14.0625 22.5C14.3214 22.5 14.5312 22.2901 14.5312 22.0312C14.5312 21.7724 14.3214 21.5625 14.0625 21.5625C13.8036 21.5625 13.5938 21.7724 13.5938 22.0312C13.5938 22.2901 13.8036 22.5 14.0625 22.5Z"/>
			<path d="M15.4687 19.6873L8.90625 19.6874C8.78193 19.6874 8.6627 19.7368 8.57479 19.8247C8.48689 19.9126 8.4375 20.0319 8.4375 20.1562V22.0312C8.4375 22.1555 8.48689 22.2747 8.57479 22.3626C8.6627 22.4505 8.78193 22.4999 8.90625 22.4999H9.45469L10.7893 29.6176C10.8094 29.725 10.8665 29.8221 10.9506 29.8919C11.0348 29.9617 11.1407 29.9999 11.25 29.9999H18.75C18.8593 29.9999 18.9652 29.9617 19.0494 29.8919C19.1335 29.8221 19.1906 29.725 19.2107 29.6176L20.5453 22.4999H21.0938C21.2181 22.4999 21.3373 22.4505 21.4252 22.3626C21.5131 22.2747 21.5625 22.1555 21.5625 22.0312V20.1562C21.5625 20.0319 21.5131 19.9126 21.4252 19.8247C21.3373 19.7368 21.2181 19.6874 21.0938 19.6874L15.4687 19.6873ZM20.625 20.6249V21.5624H15.9375C15.8132 21.5624 15.694 21.6118 15.606 21.6997C15.5181 21.7876 15.4687 21.9069 15.4687 22.0312C15.4687 22.1555 15.5181 22.2747 15.606 22.3626C15.694 22.4505 15.8132 22.4999 15.9375 22.4999H19.5914L18.3609 29.0624H11.6391L10.4086 22.4999H11.25C11.3743 22.4999 11.4935 22.4505 11.5815 22.3626C11.6694 22.2747 11.7188 22.1555 11.7188 22.0312C11.7188 21.9069 11.6694 21.7876 11.5815 21.6997C11.4935 21.6118 11.3743 21.5624 11.25 21.5624H9.375V20.6249H20.625Z"/>
			<path d="M14.5692 19.7271C14.5692 20.179 14.7679 20.545 15.013 20.545C15.2584 20.545 15.457 20.179 15.457 19.7271L15.457 15.8931C15.457 15.4416 15.2584 15.0757 15.013 15.0757C14.7679 15.0757 14.5692 15.4416 14.5692 15.8931L14.5692 19.7271Z"/>
			<path d="M24.9873 10.1866C24.9485 10.0381 24.8262 9.92473 24.6728 9.89516L23.3066 9.6318L23.839 7.37874C23.8669 7.26064 23.8382 7.13652 23.7613 7.04168C23.6844 6.94679 23.5673 6.89148 23.4438 6.89148C23.413 6.89148 23.3823 6.89489 23.3523 6.90174L21.0547 7.42359L20.7862 6.08371C20.756 5.93332 20.6404 5.81331 20.489 5.77531C20.3376 5.73719 20.1774 5.78795 20.0772 5.90562L18.2227 8.08377L19.0377 2.43426C19.0591 2.28517 18.9929 2.137 18.8667 2.05146C18.7404 1.96592 18.5756 1.95769 18.4411 2.03012L16.9459 2.83563L15.3484 0.194711C15.2754 0.0739697 15.1429 0 14.9998 0C14.8567 0 14.7242 0.074008 14.6511 0.194711L13.0537 2.83556L11.5586 2.03009C11.424 1.95761 11.2593 1.96589 11.133 2.05142C11.0067 2.13696 10.9405 2.28513 10.962 2.43418L11.7767 8.08292L9.92291 5.90555C9.82275 5.78791 9.66244 5.73715 9.51111 5.77523C9.3597 5.81327 9.24408 5.93324 9.21392 6.08363L8.94537 7.42351L6.64732 6.90167C6.51111 6.87072 6.36814 6.91086 6.26916 7.00789C6.17025 7.10488 6.12935 7.24508 6.16092 7.37874L6.69342 9.6318L5.32717 9.89516C5.17381 9.92473 5.05146 10.0381 5.01268 10.1866C4.97393 10.335 5.02564 10.4922 5.14561 10.5904L10.6647 15.1099L10.1434 16.0844C10.0701 16.2215 10.0846 16.3881 10.1807 16.511C10.2769 16.6339 10.4371 16.691 10.5912 16.657L14.5946 15.7755L15.4054 15.7756C16.9677 16.1198 19.4059 16.657 19.4059 16.657C19.4355 16.6635 19.4652 16.6667 19.4948 16.6667C19.6191 16.6667 19.7386 16.6105 19.8163 16.5112C19.9125 16.3883 19.9272 16.2219 19.8539 16.0847L19.334 15.1106L24.8545 10.5904C24.9744 10.4922 25.0261 10.335 24.9873 10.1866ZM18.6063 14.6707C18.6022 14.6732 18.5983 14.6757 18.5943 14.6783C18.4234 14.7917 18.3666 15.0128 18.4623 15.192L18.7297 15.693L15.4054 14.9606C15.0783 14.917 14.5946 14.9606 14.5946 14.9606L11.2685 15.693L11.5348 15.1952C11.6235 15.0293 11.5822 14.8253 11.4356 14.7053L6.31787 10.5145L7.26127 10.3326C7.36908 10.3119 7.46369 10.249 7.52338 10.1586C7.5831 10.0682 7.60279 9.95779 7.57799 9.85279L7.09756 7.82002L9.17084 8.29085C9.27787 8.31517 9.39044 8.29583 9.48259 8.23726C9.57482 8.17869 9.63888 8.08595 9.66001 7.98022L9.84544 7.05516L12.0661 9.66341C12.1821 9.7997 12.3763 9.84402 12.5418 9.77189C12.7074 9.69976 12.804 9.52876 12.7786 9.35293L11.8783 3.10945L13.0071 3.7176C13.1988 3.82083 13.4394 3.75644 13.5509 3.57196L14.9998 1.17677L16.4486 3.57196C16.5601 3.7564 16.8008 3.82083 16.9925 3.7176L18.1213 3.10949L17.2205 9.35378C17.1951 9.5296 17.2917 9.70068 17.4573 9.77277C17.6228 9.8449 17.817 9.80062 17.9331 9.66429L20.1545 7.0552L20.34 7.9803C20.3611 8.08606 20.4252 8.1788 20.5174 8.23734C20.6096 8.29591 20.7221 8.31525 20.8292 8.29093L22.9025 7.82002L22.422 9.85287C22.3972 9.95787 22.4169 10.0682 22.4766 10.1587C22.5364 10.2491 22.631 10.3119 22.7388 10.3327L23.6821 10.5146L18.6063 14.6707Z"/>
		</g>
	</symbol>

</svg>