<svg width="30" height="30" viewBox="0 0 30 30" fill="none" xmlns="http://www.w3.org/2000/svg">
<g clip-path="url(#clip0)">
<path d="M27.407 4.92188H2.59277C1.16318 4.92188 0 6.08505 0 7.51488V22.4675C0 23.8973 1.16318 25.0605 2.59277 25.0605H27.407C28.8368 25.0605 30 23.8973 30 22.4675V7.51488C30 6.08505 28.8368 4.92188 27.407 4.92188V4.92188ZM29.109 22.4675C29.109 23.4059 28.3454 24.1695 27.407 24.1695H2.59277C1.65459 24.1695 0.891037 23.4059 0.891037 22.4675V7.51488C0.891037 6.57646 1.65459 5.81291 2.59277 5.81291H27.407C28.3454 5.81291 29.109 6.57646 29.109 7.51488V22.4675Z" fill="#E0E8E3"/>
<path d="M13.3369 8.48621H3.00032C2.75427 8.48621 2.55469 8.68556 2.55469 8.93184V10.0009C2.55469 10.247 2.75427 10.4464 3.00032 10.4464C3.24637 10.4464 3.44595 10.247 3.44595 10.0009V9.37724H12.8914V20.2487H3.44595V11.7832C3.44595 11.5372 3.24637 11.3376 3.00032 11.3376C2.75427 11.3376 2.55469 11.5372 2.55469 11.7832V20.6941C2.55469 20.9401 2.75427 21.1397 3.00032 21.1397H13.3369C13.5829 21.1397 13.7825 20.9401 13.7825 20.6941V8.93184C13.7825 8.68556 13.5829 8.48621 13.3369 8.48621Z" fill="#E0E8E3"/>
<path d="M27.1188 9.51929H15.9505C15.7045 9.51929 15.5049 9.71887 15.5049 9.96492C15.5049 10.211 15.7045 10.4103 15.9505 10.4103H27.1188C27.3649 10.4103 27.5642 10.211 27.5642 9.96492C27.5642 9.71887 27.3649 9.51929 27.1188 9.51929Z" fill="#E0E8E3"/>
<path d="M27.1192 12.7516H24.6241C24.3781 12.7516 24.1787 12.9509 24.1787 13.197C24.1787 13.443 24.3781 13.6426 24.6241 13.6426H27.1192C27.3652 13.6426 27.5646 13.443 27.5646 13.197C27.5646 12.9509 27.3652 12.7516 27.1192 12.7516Z" fill="#E0E8E3"/>
<path d="M15.9505 13.6426H22.8415C23.0875 13.6426 23.2871 13.443 23.2871 13.197C23.2871 12.9509 23.0875 12.7516 22.8415 12.7516H15.9505C15.7045 12.7516 15.5049 12.9509 15.5049 13.197C15.5049 13.443 15.7045 13.6426 15.9505 13.6426Z" fill="#E0E8E3"/>
<path d="M27.1188 15.9836H15.9505C15.7045 15.9836 15.5049 16.183 15.5049 16.429C15.5049 16.6751 15.7045 16.8747 15.9505 16.8747H27.1188C27.3649 16.8747 27.5642 16.6751 27.5642 16.429C27.5642 16.183 27.3649 15.9836 27.1188 15.9836Z" fill="#E0E8E3"/>
<path d="M22.0099 19.2156H15.9505C15.7045 19.2156 15.5049 19.4149 15.5049 19.661C15.5049 19.907 15.7045 20.1066 15.9505 20.1066H22.0099C22.256 20.1066 22.4553 19.907 22.4553 19.661C22.4553 19.4149 22.256 19.2156 22.0099 19.2156Z" fill="#E0E8E3"/>
<path d="M5.0498 19.2685C5.0498 19.5146 5.24939 19.7139 5.49544 19.7139C5.74149 19.7139 5.94107 19.5146 5.94107 19.2685C5.94107 18.0401 6.94037 17.0408 8.16878 17.0408C9.39719 17.0408 10.3965 18.0401 10.3965 19.2685C10.3965 19.5146 10.5958 19.7139 10.8419 19.7139C11.0879 19.7139 11.2875 19.5146 11.2875 19.2685C11.2875 18.1351 10.6798 17.1413 9.77324 16.5952C10.6798 16.0491 11.2875 15.0553 11.2875 13.9218C11.2875 12.2023 9.88837 10.8031 8.16878 10.8031C6.44896 10.8031 5.0498 12.2023 5.0498 13.9218C5.0498 15.0553 5.65771 16.0491 6.56432 16.5952C5.65771 17.1413 5.0498 18.1351 5.0498 19.2685ZM5.94107 13.9218C5.94107 12.6934 6.94037 11.6941 8.16878 11.6941C9.39719 11.6941 10.3965 12.6934 10.3965 13.9218C10.3965 15.1503 9.39719 16.1496 8.16878 16.1496C6.94037 16.1496 5.94107 15.1503 5.94107 13.9218Z" fill="#E0E8E3"/>
</g>
<defs>
<clipPath id="clip0">
<rect width="30" height="30" fill="white"/>
</clipPath>
</defs>
</svg>
