<svg width="30" height="30" viewBox="0 0 30 30" fill="none" xmlns="http://www.w3.org/2000/svg">
<g clip-path="url(#clip0)">
<path d="M20.6935 0H9.30408C8.09014 0 7.10254 0.987598 7.10254 2.20154V7.55086C7.10254 7.79402 7.29971 7.99119 7.54287 7.99119C7.78604 7.99119 7.9832 7.79402 7.9832 7.55086V2.20154C7.9832 1.47316 8.57576 0.880605 9.30414 0.880605H10.9285L11.1176 1.52813C11.3174 2.21227 11.9547 2.69004 12.6674 2.69004H17.3303C18.043 2.69004 18.6803 2.21221 18.8801 1.52807L19.0691 0.880605H20.6936C21.422 0.880605 22.0145 1.47316 22.0145 2.20154V20.9963C22.0145 21.2395 22.2116 21.4366 22.4549 21.4366C22.6981 21.4366 22.8952 21.2395 22.8952 20.9963V2.20154C22.8951 0.987598 21.9075 0 20.6935 0V0ZM18.0347 1.28127C17.9439 1.59223 17.6542 1.80943 17.3303 1.80943H12.6673C12.3433 1.80943 12.0537 1.59223 11.9629 1.28127L11.8459 0.880605H18.1517L18.0347 1.28127Z" fill="#759178"/>
<path d="M22.4558 22.3171C22.2127 22.3171 22.0155 22.5143 22.0155 22.7574V27.7982C22.0155 28.5266 21.4229 29.1192 20.6946 29.1192H9.30512C8.57674 29.1192 7.98418 28.5266 7.98418 27.7982V9.31191C7.98418 9.06875 7.78707 8.87158 7.54385 8.87158C7.30068 8.87158 7.10352 9.06875 7.10352 9.31191V27.7982C7.10352 29.0122 8.09111 29.9998 9.30506 29.9998H20.6945C21.9085 29.9998 22.8961 29.0122 22.8961 27.7982V22.7574C22.8961 22.5142 22.699 22.3171 22.4558 22.3171Z" fill="#759178"/>
<rect x="12.1875" y="8.02734" width="5.68359" height="0.878906" rx="0.439453" fill="#759178"/>
<rect x="12.1875" y="9.31641" width="5.68359" height="0.878906" rx="0.439453" fill="#759178"/>
<rect x="9.66797" y="12.5977" width="10.957" height="0.878906" rx="0.439453" fill="#759178"/>
<rect x="9.66797" y="14.2969" width="10.957" height="0.878906" rx="0.439453" fill="#759178"/>
<rect x="9.66797" y="15.9961" width="10.957" height="0.878906" rx="0.439453" fill="#759178"/>
<rect x="9.66797" y="17.6953" width="10.957" height="0.878906" rx="0.439453" fill="#759178"/>
<rect x="9.66797" y="19.3945" width="10.957" height="0.878906" rx="0.439453" fill="#759178"/>
<rect x="9.66797" y="21.0938" width="7.14844" height="0.878906" rx="0.439453" fill="#759178"/>
<rect x="17.4023" y="21.0938" width="3.22266" height="0.878906" rx="0.439453" fill="#759178"/>
</g>
<defs>
<clipPath id="clip0">
<rect width="30" height="30" fill="white"/>
</clipPath>
</defs>
</svg>
