<svg width="30" height="31" viewBox="0 0 30 31" fill="none" xmlns="http://www.w3.org/2000/svg">
<g clip-path="url(#clip0)">
<path d="M29.6743 11.3755C29.5103 10.9611 29.1168 10.6877 28.6719 10.6789L27.1669 10.6491L26.6252 9.35516C26.5082 9.07545 26.1975 8.93122 25.9087 9.02232L23.3359 9.83487C24.0411 8.48714 24.9617 7.27695 26.0833 6.22549C26.2291 6.08884 26.2953 5.88732 26.2592 5.69067C26.2232 5.49402 26.0896 5.3293 25.9048 5.25357L24.68 4.75162C24.3575 4.61948 24.1344 4.32163 24.098 3.97441L23.8572 1.67895C23.8148 1.27415 23.5548 0.926928 23.1787 0.772837C22.8025 0.618687 22.3743 0.683845 22.0608 0.942777L20.2831 2.41108C20.0142 2.6332 19.6469 2.68903 19.3243 2.55683L18.0995 2.05488C17.9148 1.97915 17.7043 2.00287 17.5409 2.1178C17.3776 2.23274 17.2839 2.42305 17.2922 2.62281C17.3567 4.16026 17.1668 5.66994 16.727 7.12644L15.4602 4.74035C15.318 4.47249 14.9952 4.35738 14.7163 4.47467L13.4247 5.0173L12.3303 3.98181C12.0069 3.67574 11.5348 3.59444 11.1281 3.77489C10.7212 3.95528 10.4638 4.35979 10.4724 4.80545L10.5002 6.2461L9.2826 6.75768C9.13371 6.8202 9.01723 6.94148 8.96057 7.09293C8.90385 7.24437 8.91211 7.4125 8.98324 7.55766L10.0633 9.76208C10.4669 10.5858 11.0581 11.2921 11.7819 11.8298L10.6564 12.1858C10.5063 12.2333 10.3815 12.3393 10.3103 12.48C10.239 12.6207 10.2273 12.7841 10.2777 12.9336C10.3331 13.098 10.3972 13.2582 10.469 13.414L9.34858 14.0621C9.04682 14.2366 8.67527 14.231 8.37891 14.0472L6.41987 12.8326C6.0744 12.6185 5.6411 12.6117 5.28924 12.8153C4.93732 13.0188 4.7265 13.398 4.73892 13.8048L4.80941 16.1118C4.82008 16.4608 4.6392 16.786 4.33738 16.9606L3.19128 17.6234C3.01842 17.7234 2.90827 17.9047 2.89895 18.1044C2.88963 18.3041 2.98251 18.4949 3.14528 18.6106C4.39814 19.5009 5.47328 20.5756 6.35354 21.8157L3.69478 21.3583C3.39659 21.3072 3.10801 21.4919 3.02967 21.7849L2.66715 23.1402L1.17986 23.3731C0.740286 23.4419 0.387257 23.766 0.280498 24.1988C0.17374 24.6314 0.335342 25.083 0.692356 25.3491L1.84631 26.2092L1.50459 27.4869C1.46281 27.6431 1.48719 27.8097 1.57197 27.9473C1.65681 28.0848 1.79451 28.1813 1.9526 28.2138L4.35367 28.7079C5.25086 28.8926 6.1702 28.8568 7.03774 28.6126L6.62964 29.722C6.57514 29.87 6.58247 30.0337 6.64991 30.1763C6.71729 30.3189 6.83911 30.4283 6.98794 30.4798C7.50134 30.6577 8.03431 30.7455 8.56541 30.7455C9.40307 30.7455 10.2358 30.5268 10.9778 30.0977L11.753 29.6492C12.4716 29.2336 12.9953 28.5751 13.24 27.7858L14.6131 30.1683C14.7217 30.3566 14.9185 30.4619 15.1211 30.4619C15.2205 30.4619 15.3213 30.4365 15.4135 30.3832C15.6937 30.2211 15.7898 29.8621 15.6279 29.5813L14.2549 27.1987C15.0596 27.3811 15.8906 27.256 16.6092 26.8403L17.3844 26.3919C18.5968 25.6907 19.4443 24.4986 19.7097 23.1214C19.7395 22.9666 19.7058 22.8061 19.6163 22.6764C19.5268 22.5467 19.3889 22.4584 19.2338 22.4317L18.0707 22.231C18.7155 21.6004 19.2061 20.8207 19.4951 19.9499L19.9154 18.6837C20.4887 18.9118 21.0928 19.0262 21.6961 19.0262C22.4441 19.0262 23.1905 18.8518 23.8738 18.5055C24.0143 18.4343 24.1203 18.3095 24.1679 18.1591C24.2155 18.0087 24.2007 17.8456 24.1268 17.7063L23.5731 16.6621C24.4656 16.7866 25.3814 16.6979 26.2455 16.3938L28.558 15.5797C28.7103 15.5261 28.8338 15.412 28.8993 15.2642C28.9648 15.1164 28.9665 14.948 28.9041 14.7989L28.3934 13.579L29.421 12.5709C29.7389 12.2591 29.8383 11.7898 29.6743 11.3755ZM13.022 15.86L13.3623 15.9995L12.5374 18.2389C12.0468 17.1646 11.7018 16.0378 11.5048 14.8706C11.9387 15.2886 12.4516 15.6262 13.022 15.86ZM18.3831 19.5794C18.0337 20.6323 17.3129 21.5178 16.3538 22.0726C16.1401 22.1962 16.0266 22.4407 16.0699 22.6841C16.1133 22.9275 16.3041 23.1175 16.5473 23.1595L18.3971 23.4786C18.1033 24.2724 17.5413 24.9454 16.7985 25.3751L16.0233 25.8236C15.5375 26.1045 14.9718 26.179 14.4302 26.0336L14.0232 25.9244L14.6296 23.6568C14.7134 23.3436 14.5279 23.0217 14.2153 22.9378C13.9026 22.8539 13.5815 23.0398 13.4977 23.3529L13.0351 25.0823L11.8098 22.956C11.648 22.6753 11.2897 22.5791 11.0094 22.7412C10.7292 22.9033 10.6331 23.2623 10.795 23.5431L12.0203 25.6693L10.0795 25.1483C9.76676 25.0643 9.44573 25.2503 9.36194 25.5634C9.27815 25.8766 9.46366 26.1984 9.77626 26.2823L12.2542 26.9475L12.1451 27.3554C12 27.898 11.6526 28.3515 11.167 28.6324L10.3918 29.0808C9.64887 29.5105 8.78608 29.6616 7.95298 29.5196L8.60209 27.755C8.68746 27.523 8.61856 27.2624 8.42988 27.1031C8.24121 26.9439 7.97302 26.92 7.75939 27.0437C6.8002 27.5984 5.67438 27.781 4.58951 27.5578L2.79747 27.1889L3.08124 26.1278C3.14341 25.8954 3.05774 25.6485 2.86503 25.5049L1.52609 24.5071L3.22485 24.2411C3.4539 24.2052 3.64034 24.0374 3.70034 23.813L4.0232 22.6059L7.4649 23.198C7.68855 23.2365 7.9149 23.1419 8.04474 22.955C8.1747 22.7683 8.18508 22.5231 8.07146 22.3259C7.15107 20.7289 5.96641 19.3434 4.54269 18.1973L4.9232 17.9772C5.59926 17.5861 6.00444 16.8576 5.98059 16.0758L5.91409 13.8997L7.76197 15.0454C8.42578 15.4571 9.25811 15.4699 9.93429 15.0787L10.3148 14.8587C10.5938 16.667 11.199 18.3876 12.1194 19.9846C12.233 20.1818 12.4503 20.2953 12.6767 20.276C12.9031 20.2566 13.0979 20.1079 13.1766 19.8944L14.3856 16.6122L15.5905 16.9357C15.8144 16.9959 16.0527 16.918 16.1982 16.7372L17.2775 15.3963L17.441 16.8018C17.4411 16.8025 17.4412 16.8031 17.4412 16.8038L17.4707 17.0569C17.4985 17.2959 17.6691 17.4936 17.9011 17.5559L18.9602 17.8403L18.3831 19.5794ZM27.2892 13.0191C27.1176 13.1874 27.066 13.4436 27.1588 13.6655L27.5829 14.6785L25.8569 15.2861C24.812 15.6539 23.672 15.6252 22.6468 15.2051C22.4183 15.1114 22.1558 15.1713 21.9904 15.3546C21.8249 15.5379 21.7917 15.8056 21.9075 16.0238L22.7882 17.6845C21.9818 17.9378 21.1067 17.9047 20.3127 17.5793L20.2829 17.5671C20.3151 17.4286 20.2962 17.2824 20.2284 17.1561C20.1518 17.0137 20.02 16.9092 19.8641 16.8674L18.5888 16.525L18.4801 15.5911L20.341 14.8093C20.6395 14.6839 20.7799 14.3399 20.6548 14.0409C20.5297 13.742 20.1863 13.6013 19.8878 13.7267L18.2398 14.419L19.5939 11.1027C19.7164 10.8026 19.5729 10.4599 19.2734 10.3371C18.9738 10.2143 18.6317 10.3581 18.5092 10.6582L17.1551 13.9746L16.3781 12.1184C16.2529 11.8194 15.9095 11.6787 15.6111 11.8041C15.3126 11.9295 15.1722 12.2734 15.2974 12.5724L16.2375 14.8182L16.0598 15.0391L15.901 15.1058C15.3838 15.323 14.8132 15.3256 14.2942 15.1128L13.4656 14.7733C12.6717 14.448 12.0242 13.857 11.6262 13.1102L13.4162 12.544C13.6515 12.4696 13.8151 12.2554 13.8252 12.0084C13.8354 11.7614 13.6899 11.5345 13.4616 11.4409C12.4365 11.0208 11.6032 10.2409 11.1151 9.2448L10.309 7.59952L11.3202 7.1747C11.5416 7.08165 11.684 6.86264 11.6794 6.62202L11.6472 4.9505L12.8972 6.13327C13.0657 6.29277 13.3123 6.33761 13.526 6.24786L14.6765 5.76457L16.3163 8.85326C16.423 9.05432 16.6362 9.17565 16.8631 9.16385C17.09 9.15241 17.2899 9.01052 17.376 8.79984C18.0729 7.09298 18.441 5.30635 18.4738 3.47686L18.8805 3.64351C19.603 3.93966 20.4261 3.81451 21.0285 3.31701L22.7052 1.93207L22.9323 4.09722C23.014 4.87507 23.5135 5.54227 24.2361 5.83836L24.6427 6.00501C23.3863 7.33307 22.3991 8.866 21.7021 10.5728C21.6161 10.7835 21.6594 11.0251 21.8133 11.1926C21.9672 11.3601 22.2039 11.4234 22.4206 11.3549L25.7511 10.3031L26.2335 11.4556C26.3232 11.6698 26.5305 11.8108 26.7623 11.8154L28.4814 11.8494L27.2892 13.0191Z" fill="#759178"/>
</g>
<defs>
<clipPath id="clip0">
<rect width="30" height="30.0549" fill="white" transform="translate(0 0.69043)"/>
</clipPath>
</defs>
</svg>
