<svg width="30" height="30" viewBox="0 0 30 30" fill="none" xmlns="http://www.w3.org/2000/svg">
<g clip-path="url(#clip0)">
<path d="M29.5595 13.7579C29.8028 13.7579 30 13.5606 30 13.3173V9.08562C30 7.46607 28.6824 6.14849 27.0629 6.14849H26.1548V5.56544C26.1548 4.95361 25.6571 4.45586 25.0452 4.45586H24.2604C23.6485 4.45586 23.1508 4.95361 23.1508 5.56544V6.14849H20.9073V5.56544C20.9073 5.04666 20.549 4.61116 20.0671 4.49028V3.51433C20.0671 2.20967 19.0057 1.14819 17.701 1.14819H15.9387C15.6954 1.14819 15.4981 1.34544 15.4981 1.58874C15.4981 1.83204 15.6954 2.02928 15.9387 2.02928H17.701C18.5198 2.02928 19.1861 2.69544 19.1861 3.51433V4.45592H18.305V3.51433C18.305 3.18133 18.0341 2.91037 17.701 2.91037H12.3576C12.0246 2.91037 11.7536 3.18128 11.7536 3.51433V4.45592H10.8725V3.51433C10.8725 2.6955 11.5387 2.02928 12.3576 2.02928H14.0612C14.3045 2.02928 14.5017 1.83204 14.5017 1.58874C14.5017 1.34544 14.3045 1.14819 14.0612 1.14819H12.3576C11.0529 1.14819 9.99142 2.20961 9.99142 3.51433V4.49034C9.50959 4.61122 9.15122 5.04672 9.15122 5.5655V6.14855H6.90779V5.5655C6.90779 4.95367 6.41003 4.45592 5.79821 4.45592H5.01351C4.40168 4.45592 3.90393 4.95367 3.90393 5.5655V6.14855H2.93714C1.31758 6.14855 0 7.46613 0 9.08568V25.9149C0 27.5344 1.31758 28.852 2.93714 28.852H27.0629C28.6825 28.852 30.0001 27.5344 30.0001 25.9149V15.1948C30.0001 14.9515 29.8028 14.7543 29.5595 14.7543C29.3162 14.7543 29.119 14.9515 29.119 15.1948V25.9149C29.119 27.0486 28.1966 27.9709 27.0629 27.9709H23.9879V18.3655H24.0817C25.2231 18.3655 26.1517 17.4369 26.1517 16.2956V14.1234C26.1517 12.982 25.2231 12.0534 24.0817 12.0534H23.9879V7.02963H27.0629C28.1966 7.02963 29.119 7.95196 29.119 9.08568V13.3174C29.1189 13.5606 29.3162 13.7579 29.5595 13.7579ZM21.1266 12.0534C19.9852 12.0534 19.0566 12.982 19.0566 14.1234V16.2956C19.0566 17.437 19.9853 18.3655 21.1266 18.3655H21.2205V27.9709H8.83831V24.8078L11.4255 23.8871C11.8837 23.7241 12.1238 23.2187 11.9608 22.7605L11.0717 20.262C10.9087 19.8038 10.4033 19.5637 9.94508 19.7268L8.83831 20.1206V18.3656H8.93218C10.0736 18.3656 11.0021 17.437 11.0021 16.2956V14.1235C11.0021 12.982 10.0735 12.0534 8.93218 12.0534H8.83831V7.02969H21.2205V12.0534H21.1266V12.0534ZM6.07093 24.8571L4.66759 25.3557L3.77905 22.856L6.07093 22.0405V24.8571ZM5.97707 17.4845C5.32148 17.4845 4.78819 16.9511 4.78819 16.2956V14.1234C4.78819 13.4678 5.32154 12.9345 5.97707 12.9345H8.93212C9.58771 12.9345 10.121 13.4678 10.121 14.1234V16.2956C10.121 16.9512 9.58765 17.4845 8.93212 17.4845H5.97707ZM8.83831 21.0559L10.2417 20.5574L11.1301 23.057L8.83831 23.8726V21.0559ZM17.4649 6.14855V5.5655C17.4649 5.43951 17.5674 5.33701 17.6934 5.33701H19.7978C19.9238 5.33701 20.0263 5.43951 20.0263 5.5655V6.14855H17.4649ZM17.4239 3.79146V4.49034C16.9421 4.61122 16.5838 5.04672 16.5838 5.5655V6.14855H13.475V5.5655C13.475 5.04672 13.1166 4.61122 12.6348 4.49034V3.79146H17.4239ZM10.0324 5.5655C10.0324 5.43951 10.1349 5.33701 10.2609 5.33701H12.3654C12.4914 5.33701 12.5939 5.43951 12.5939 5.5655V6.14855H10.0324V5.5655ZM4.78501 5.5655C4.78501 5.43951 4.88751 5.33701 5.01351 5.33701H5.79838C5.92438 5.33701 6.02688 5.43951 6.02688 5.5655V6.14855H4.78501V5.5655ZM0.881088 25.9149V9.08568C0.881088 7.95196 1.80341 7.02963 2.93714 7.02963H4.34447H6.07093V8.59327C6.07093 8.83657 6.26818 9.03382 6.51148 9.03382C6.75478 9.03382 6.95202 8.83657 6.95202 8.59327V7.02963H7.95723V12.0534H6.95202V10.4708C6.95202 10.2275 6.75478 10.0302 6.51148 10.0302C6.26818 10.0302 6.07093 10.2275 6.07093 10.4708V12.0534H5.97707C4.83565 12.0534 3.9071 12.982 3.9071 14.1234V16.2956C3.9071 17.437 4.83571 18.3655 5.97707 18.3655H6.07093V21.1053L3.48376 22.0259C3.26179 22.1049 3.08387 22.2656 2.98278 22.4784C2.88169 22.6912 2.86953 22.9306 2.94853 23.1526L3.83761 25.6511C3.91661 25.873 4.07732 26.0509 4.29008 26.152C4.4102 26.209 4.53878 26.2378 4.66795 26.2378C4.76757 26.2378 4.8676 26.2206 4.96423 26.1863L6.07105 25.7924V27.9709H2.93714C1.80341 27.9709 0.881088 27.0485 0.881088 25.9149ZM6.95202 27.9709V18.3655H7.95723V27.9709H6.95202ZM23.1067 27.9709H22.1015V18.3655H23.1067V27.9709ZM25.2706 14.1233V16.2955C25.2706 16.9511 24.7372 17.4844 24.0817 17.4844H21.1266C20.471 17.4844 19.9377 16.951 19.9377 16.2955V14.1233C19.9377 13.4677 20.4711 12.9344 21.1266 12.9344H24.0817C24.7373 12.9345 25.2706 13.4678 25.2706 14.1233ZM22.1016 12.0534V7.02963H23.1067V12.0534H22.1016ZM24.0319 6.14855V5.5655C24.0319 5.43951 24.1344 5.33701 24.2604 5.33701H25.0453C25.1713 5.33701 25.2738 5.43951 25.2738 5.5655V6.14855H24.0319Z" fill="#759178"/>
<path d="M9.23964 16.1627V14.256C9.23964 14.0127 9.0424 13.8154 8.7991 13.8154H6.10949C5.86619 13.8154 5.66895 14.0127 5.66895 14.256V16.1627C5.66895 16.406 5.86619 16.6032 6.10949 16.6032H8.7991C9.0424 16.6032 9.23964 16.406 9.23964 16.1627ZM8.35856 15.7222H6.55003V14.6965H8.35856V15.7222Z" fill="#759178"/>
<path d="M20.8193 14.256V16.1627C20.8193 16.406 21.0166 16.6032 21.2599 16.6032H23.9495C24.1928 16.6032 24.39 16.406 24.39 16.1627V14.256C24.39 14.0127 24.1928 13.8154 23.9495 13.8154H21.2599C21.0166 13.8154 20.8193 14.0127 20.8193 14.256ZM21.7004 14.6965H23.5089V15.7222H21.7004V14.6965Z" fill="#759178"/>
<path d="M18.6063 11.2674C18.635 11.0287 18.5279 10.7988 18.3266 10.6674L15.1483 8.5909C14.9895 8.4871 14.7947 8.46079 14.6141 8.51859C14.4334 8.57639 14.2901 8.7109 14.2211 8.88765V8.88771L12.7725 12.5958C12.6821 12.8271 12.7332 13.0815 12.9058 13.26C13.027 13.3854 13.1878 13.4521 13.3538 13.4521C13.4242 13.4521 13.4955 13.4401 13.5652 13.4156L18.1922 11.784C18.4189 11.7039 18.5775 11.506 18.6063 11.2674ZM13.7948 12.4002L14.928 9.49936L17.4145 11.1238L13.7948 12.4002Z" fill="#759178"/>
<path d="M14.7705 23.4492C14.7705 24.8897 15.9425 26.0617 17.3831 26.0617C18.8236 26.0617 19.9956 24.8898 19.9956 23.4492C19.9956 22.0086 18.8236 20.8367 17.3831 20.8367C15.9425 20.8367 14.7705 22.0086 14.7705 23.4492ZM19.1145 23.4492C19.1145 24.4039 18.3377 25.1807 17.383 25.1807C16.4282 25.1807 15.6515 24.404 15.6515 23.4492C15.6515 22.4945 16.4282 21.7178 17.383 21.7178C18.3377 21.7178 19.1145 22.4945 19.1145 23.4492Z" fill="#759178"/>
</g>
<defs>
<clipPath id="clip0">
<rect width="30" height="30" fill="white"/>
</clipPath>
</defs>
</svg>
