<svg width="30" height="20" viewBox="0 0 30 20" fill="none" xmlns="http://www.w3.org/2000/svg">
<path d="M28.1941 0.253174H8.32803C8.08486 0.253174 7.8877 0.450283 7.8877 0.693506C7.8877 0.936728 8.08481 1.13384 8.32803 1.13384H28.1941C28.704 1.13384 29.1189 1.54868 29.1189 2.05868V17.9413C29.1189 18.4512 28.704 18.8661 28.1941 18.8661H15.2272C14.984 18.8661 14.7868 19.0632 14.7868 19.3065C14.7868 19.5497 14.984 19.7468 15.2272 19.7468H28.1941C29.1896 19.7468 29.9996 18.9368 29.9996 17.9413V2.05862C29.9996 1.06312 29.1896 0.253174 28.1941 0.253174Z" fill="#759178"/>
<path d="M13.4663 18.8661H1.80545C1.29551 18.8661 0.880605 18.4512 0.880605 17.9412V2.05868C0.880605 1.54874 1.29551 1.13384 1.80545 1.13384H6.56725C6.81041 1.13384 7.00758 0.936728 7.00758 0.693506C7.00758 0.450283 6.81047 0.253174 6.56725 0.253174H1.80545C0.809941 0.253232 0 1.06317 0 2.05868V17.9413C0 18.9368 0.809941 19.7467 1.80545 19.7467H13.4663C13.7095 19.7467 13.9066 19.5496 13.9066 19.3064C13.9066 19.0632 13.7095 18.8661 13.4663 18.8661Z" fill="#759178"/>
<path d="M8.62055 14.7356C8.62055 14.9788 8.81766 15.1759 9.06088 15.1759H11.4217C12.2759 15.1759 12.9708 14.481 12.9708 13.6268V6.37308C12.9708 5.5189 12.2759 4.82397 11.4217 4.82397H4.93875C4.08457 4.82397 3.38965 5.5189 3.38965 6.37308V13.6267C3.38965 14.4809 4.08457 15.1758 4.93875 15.1758H7.29961C7.54277 15.1758 7.73994 14.9787 7.73994 14.7355C7.73994 14.4923 7.54283 14.2952 7.29961 14.2952H5.33022C5.39197 13.056 5.75625 12.1225 7.02592 11.5935C7.23433 11.5067 7.38146 11.3221 7.41955 11.0998C7.45723 10.8796 7.38082 10.6589 7.215 10.5093C6.81527 10.149 6.63703 9.75628 6.63703 9.23579C6.63703 8.82733 6.79734 8.44454 7.08838 8.1579C7.37935 7.87132 7.76537 7.71892 8.17359 7.72314C8.17805 7.72325 8.18256 7.72325 8.18701 7.72314C8.59658 7.71605 8.98125 7.87132 9.27217 8.1579C9.5632 8.44454 9.72351 8.82739 9.72351 9.23579C9.72351 9.75622 9.54527 10.149 9.14549 10.5094C8.97973 10.6589 8.90326 10.8796 8.941 11.0998C8.97908 11.3221 9.12621 11.5066 9.33469 11.5935C10.2803 11.9875 10.9337 12.6133 11.0285 14.2952H9.06088C8.81766 14.2952 8.62055 14.4924 8.62055 14.7356ZM9.97717 10.9202C10.3984 10.4449 10.6041 9.89087 10.6041 9.23591C10.6041 8.58974 10.3505 7.98405 9.89004 7.53054C9.43131 7.07872 8.82545 6.83655 8.18021 6.84259C7.53709 6.83538 6.92912 7.07872 6.47033 7.5306C6.0099 7.98405 5.75631 8.58968 5.75631 9.23591C5.75631 9.89093 5.96191 10.4449 6.3832 10.9202C5.19545 11.5199 4.58736 12.5235 4.46344 14.0961C4.34414 13.9753 4.27025 13.8096 4.27025 13.6267V6.37308C4.27025 6.00446 4.57014 5.70458 4.93875 5.70458H11.4216C11.7902 5.70458 12.0901 6.00446 12.0901 6.37308V13.6267C12.0901 13.8096 12.0162 13.9753 11.8969 14.0961C11.773 12.5234 11.1649 11.5199 9.97717 10.9202Z" fill="#759178"/>
<path d="M26.1723 5.42358H15.6601C15.4169 5.42358 15.2197 5.62069 15.2197 5.86392C15.2197 6.10714 15.4169 6.30425 15.6601 6.30425H26.1723C26.4155 6.30425 26.6126 6.10714 26.6126 5.86392C26.6126 5.62069 26.4155 5.42358 26.1723 5.42358Z" fill="#759178"/>
<path d="M26.1723 7.87207H15.6601C15.4169 7.87207 15.2197 8.06918 15.2197 8.3124C15.2197 8.55563 15.4169 8.75274 15.6601 8.75274H26.1723C26.4155 8.75274 26.6126 8.55563 26.6126 8.3124C26.6126 8.06918 26.4155 7.87207 26.1723 7.87207Z" fill="#759178"/>
<path d="M26.6126 10.7799C26.6126 10.5367 26.4154 10.3396 26.1722 10.3396H15.6601C15.4169 10.3396 15.2197 10.5367 15.2197 10.7799C15.2197 11.0232 15.4169 11.2203 15.6601 11.2203H26.1723C26.4155 11.2203 26.6126 11.0232 26.6126 10.7799Z" fill="#759178"/>
<path d="M15.2197 13.2204V14.6575C15.2197 14.9007 15.4169 15.0978 15.6601 15.0978C15.9032 15.0978 16.1004 14.9007 16.1004 14.6575V13.2204C16.1004 12.9771 15.9032 12.78 15.6601 12.78C15.4169 12.78 15.2197 12.9771 15.2197 13.2204Z" fill="#759178"/>
<path d="M16.9717 13.2204V14.6575C16.9717 14.9007 17.1688 15.0978 17.412 15.0978C17.6552 15.0978 17.8523 14.9007 17.8523 14.6575V13.2204C17.8523 12.9771 17.6552 12.78 17.412 12.78C17.1688 12.78 16.9717 12.9771 16.9717 13.2204Z" fill="#759178"/>
<path d="M18.7236 13.2204V14.6575C18.7236 14.9007 18.9207 15.0978 19.164 15.0978C19.4072 15.0978 19.6043 14.9007 19.6043 14.6575V13.2204C19.6043 12.9771 19.4071 12.78 19.164 12.78C18.9208 12.78 18.7236 12.9771 18.7236 13.2204Z" fill="#759178"/>
<path d="M22.2275 13.2204V14.6575C22.2275 14.9007 22.4247 15.0978 22.6679 15.0978C22.911 15.0978 23.1082 14.9007 23.1082 14.6575V13.2204C23.1082 12.9771 22.9111 12.78 22.6679 12.78C22.4247 12.78 22.2275 12.9771 22.2275 13.2204Z" fill="#759178"/>
<path d="M20.4756 13.2204V14.6575C20.4756 14.9007 20.6728 15.0978 20.9159 15.0978C21.1591 15.0978 21.3562 14.9007 21.3562 14.6575V13.2204C21.3562 12.9771 21.1591 12.78 20.9159 12.78C20.6728 12.78 20.4756 12.9771 20.4756 13.2204Z" fill="#759178"/>
<path d="M23.9795 13.2204V14.6575C23.9795 14.9007 24.1767 15.0978 24.4198 15.0978C24.663 15.0978 24.8602 14.9007 24.8602 14.6575V13.2204C24.8602 12.9771 24.663 12.78 24.4198 12.78C24.1766 12.78 23.9795 12.9771 23.9795 13.2204Z" fill="#759178"/>
<path d="M26.6121 13.2204C26.6121 12.9771 26.4149 12.78 26.1718 12.78C25.9286 12.78 25.7314 12.9771 25.7314 13.2204V14.6575C25.7314 14.9007 25.9286 15.0978 26.1718 15.0978C26.4149 15.0978 26.6121 14.9007 26.6121 14.6575V13.2204Z" fill="#759178"/>
</svg>
