<svg width="30" height="30" viewBox="0 0 30 30" fill="none" xmlns="http://www.w3.org/2000/svg">
<path d="M28.1941 10.2532H8.32803C8.08486 10.2532 7.8877 10.4503 7.8877 10.6935C7.8877 10.9367 8.08481 11.1338 8.32803 11.1338H28.1941C28.704 11.1338 29.1189 11.5487 29.1189 12.0587V27.9413C29.1189 28.4512 28.704 28.8661 28.1941 28.8661H15.2272C14.984 28.8661 14.7868 29.0632 14.7868 29.3065C14.7868 29.5497 14.984 29.7468 15.2272 29.7468H28.1941C29.1896 29.7468 29.9996 28.9368 29.9996 27.9413V12.0586C29.9996 11.0631 29.1896 10.2532 28.1941 10.2532Z" fill="#759178"/>
<path d="M13.4663 28.8661H1.80545C1.29551 28.8661 0.880605 28.4512 0.880605 27.9412V12.0587C0.880605 11.5487 1.29551 11.1338 1.80545 11.1338H6.56725C6.81041 11.1338 7.00758 10.9367 7.00758 10.6935C7.00758 10.4503 6.81047 10.2532 6.56725 10.2532H1.80545C0.809941 10.2532 0 11.0632 0 12.0587V27.9413C0 28.9368 0.809941 29.7467 1.80545 29.7467H13.4663C13.7095 29.7467 13.9066 29.5496 13.9066 29.3064C13.9066 29.0632 13.7095 28.8661 13.4663 28.8661Z" fill="#759178"/>
<path d="M8.62055 24.7356C8.62055 24.9788 8.81766 25.1759 9.06088 25.1759H11.4217C12.2759 25.1759 12.9708 24.481 12.9708 23.6268V16.3731C12.9708 15.5189 12.2759 14.824 11.4217 14.824H4.93875C4.08457 14.824 3.38965 15.5189 3.38965 16.3731V23.6267C3.38965 24.4809 4.08457 25.1758 4.93875 25.1758H7.29961C7.54277 25.1758 7.73994 24.9787 7.73994 24.7355C7.73994 24.4923 7.54283 24.2952 7.29961 24.2952H5.33022C5.39197 23.056 5.75625 22.1225 7.02592 21.5935C7.23433 21.5067 7.38146 21.3221 7.41955 21.0998C7.45723 20.8796 7.38082 20.6589 7.215 20.5093C6.81527 20.149 6.63703 19.7563 6.63703 19.2358C6.63703 18.8273 6.79734 18.4445 7.08838 18.1579C7.37935 17.8713 7.76537 17.7189 8.17359 17.7231C8.17805 17.7233 8.18256 17.7233 8.18701 17.7231C8.59658 17.716 8.98125 17.8713 9.27217 18.1579C9.5632 18.4445 9.72351 18.8274 9.72351 19.2358C9.72351 19.7562 9.54527 20.149 9.14549 20.5094C8.97973 20.6589 8.90326 20.8796 8.941 21.0998C8.97908 21.3221 9.12621 21.5066 9.33469 21.5935C10.2803 21.9875 10.9337 22.6133 11.0285 24.2952H9.06088C8.81766 24.2952 8.62055 24.4924 8.62055 24.7356ZM9.97717 20.9202C10.3984 20.4449 10.6041 19.8909 10.6041 19.2359C10.6041 18.5897 10.3505 17.9841 9.89004 17.5305C9.43131 17.0787 8.82545 16.8366 8.18021 16.8426C7.53709 16.8354 6.92912 17.0787 6.47033 17.5306C6.0099 17.9841 5.75631 18.5897 5.75631 19.2359C5.75631 19.8909 5.96191 20.4449 6.3832 20.9202C5.19545 21.5199 4.58736 22.5235 4.46344 24.0961C4.34414 23.9753 4.27025 23.8096 4.27025 23.6267V16.3731C4.27025 16.0045 4.57014 15.7046 4.93875 15.7046H11.4216C11.7902 15.7046 12.0901 16.0045 12.0901 16.3731V23.6267C12.0901 23.8096 12.0162 23.9753 11.8969 24.0961C11.773 22.5234 11.1649 21.5199 9.97717 20.9202Z" fill="#759178"/>
<path d="M26.1723 15.4236H15.6601C15.4169 15.4236 15.2197 15.6207 15.2197 15.8639C15.2197 16.1071 15.4169 16.3042 15.6601 16.3042H26.1723C26.4155 16.3042 26.6126 16.1071 26.6126 15.8639C26.6126 15.6207 26.4155 15.4236 26.1723 15.4236Z" fill="#759178"/>
<path d="M26.1723 17.8721H15.6601C15.4169 17.8721 15.2197 18.0692 15.2197 18.3124C15.2197 18.5556 15.4169 18.7527 15.6601 18.7527H26.1723C26.4155 18.7527 26.6126 18.5556 26.6126 18.3124C26.6126 18.0692 26.4155 17.8721 26.1723 17.8721Z" fill="#759178"/>
<path d="M26.6126 20.7799C26.6126 20.5367 26.4154 20.3396 26.1722 20.3396H15.6601C15.4169 20.3396 15.2197 20.5367 15.2197 20.7799C15.2197 21.0232 15.4169 21.2203 15.6601 21.2203H26.1723C26.4155 21.2203 26.6126 21.0232 26.6126 20.7799Z" fill="#759178"/>
<path d="M15.2197 23.2204V24.6575C15.2197 24.9007 15.4169 25.0978 15.6601 25.0978C15.9032 25.0978 16.1004 24.9007 16.1004 24.6575V23.2204C16.1004 22.9771 15.9032 22.78 15.6601 22.78C15.4169 22.78 15.2197 22.9771 15.2197 23.2204Z" fill="#759178"/>
<path d="M16.9717 23.2204V24.6575C16.9717 24.9007 17.1688 25.0978 17.412 25.0978C17.6552 25.0978 17.8523 24.9007 17.8523 24.6575V23.2204C17.8523 22.9771 17.6552 22.78 17.412 22.78C17.1688 22.78 16.9717 22.9771 16.9717 23.2204Z" fill="#759178"/>
<path d="M18.7236 23.2204V24.6575C18.7236 24.9007 18.9207 25.0978 19.164 25.0978C19.4072 25.0978 19.6043 24.9007 19.6043 24.6575V23.2204C19.6043 22.9771 19.4071 22.78 19.164 22.78C18.9208 22.78 18.7236 22.9771 18.7236 23.2204Z" fill="#759178"/>
<path d="M22.2275 23.2204V24.6575C22.2275 24.9007 22.4247 25.0978 22.6679 25.0978C22.911 25.0978 23.1082 24.9007 23.1082 24.6575V23.2204C23.1082 22.9771 22.9111 22.78 22.6679 22.78C22.4247 22.78 22.2275 22.9771 22.2275 23.2204Z" fill="#759178"/>
<path d="M20.4756 23.2204V24.6575C20.4756 24.9007 20.6728 25.0978 20.9159 25.0978C21.1591 25.0978 21.3562 24.9007 21.3562 24.6575V23.2204C21.3562 22.9771 21.1591 22.78 20.9159 22.78C20.6728 22.78 20.4756 22.9771 20.4756 23.2204Z" fill="#759178"/>
<path d="M23.9795 23.2204V24.6575C23.9795 24.9007 24.1767 25.0978 24.4198 25.0978C24.663 25.0978 24.8602 24.9007 24.8602 24.6575V23.2204C24.8602 22.9771 24.663 22.78 24.4198 22.78C24.1766 22.78 23.9795 22.9771 23.9795 23.2204Z" fill="#759178"/>
<path d="M26.6121 23.2204C26.6121 22.9771 26.4149 22.78 26.1718 22.78C25.9286 22.78 25.7314 22.9771 25.7314 23.2204V24.6575C25.7314 24.9007 25.9286 25.0978 26.1718 25.0978C26.4149 25.0978 26.6121 24.9007 26.6121 24.6575V23.2204Z" fill="#759178"/>
</svg>
