<svg width="50" height="50" viewBox="0 0 50 50" fill="none" xmlns="http://www.w3.org/2000/svg">
<path d="M38.1855 24.5561H41.6732C42.4617 24.5561 43.1032 23.9146 43.1032 23.1261V19.6384C43.1032 18.8499 42.4617 18.2084 41.6732 18.2084H38.1855C37.3971 18.2084 36.7556 18.8499 36.7556 19.6384V23.1261C36.7556 23.9146 37.3971 24.5561 38.1855 24.5561ZM38.2204 19.6732H41.6384V23.0912H38.2204V19.6732ZM38.1855 33.8334H41.6732C42.4617 33.8334 43.1032 33.1919 43.1032 32.4034V28.9157C43.1032 28.1272 42.4617 27.4857 41.6732 27.4857H38.1855C37.3971 27.4857 36.7556 28.1272 36.7556 28.9157V32.4034C36.7556 33.1919 37.3971 33.8334 38.1855 33.8334ZM38.2204 28.9506H41.6384V32.3686H38.2204V28.9506ZM28.2328 24.5561H31.7205C32.509 24.5561 33.1505 23.9146 33.1505 23.1261V19.6384C33.1505 18.8499 32.509 18.2084 31.7205 18.2084H28.2328C27.4443 18.2084 26.8028 18.8499 26.8028 19.6384V23.1261C26.8028 23.9146 27.4443 24.5561 28.2328 24.5561ZM28.2677 19.6732H31.6856V23.0912H28.2677V19.6732ZM11.815 36.3281H8.32734C7.53887 36.3281 6.89736 36.9696 6.89736 37.7581V41.2458C6.89736 42.0343 7.53887 42.6758 8.32734 42.6758H11.815C12.6035 42.6758 13.245 42.0343 13.245 41.2458V37.7581C13.245 36.9696 12.6035 36.3281 11.815 36.3281ZM11.7802 41.2109H8.36221V37.793H11.7802V41.2109ZM11.815 18.2084H8.32734C7.53887 18.2084 6.89736 18.8499 6.89736 19.6384V23.1261C6.89736 23.9146 7.53887 24.5561 8.32734 24.5561H11.815C12.6035 24.5561 13.245 23.9146 13.245 23.1261V19.6384C13.245 18.8498 12.6035 18.2084 11.815 18.2084ZM11.7802 23.0912H8.36221V19.6732H11.7802V23.0912ZM28.2328 33.6159H31.7205C32.509 33.6159 33.1505 32.9744 33.1505 32.1859V28.6982C33.1505 27.9098 32.509 27.2683 31.7205 27.2683H28.2328C27.4443 27.2683 26.8028 27.9098 26.8028 28.6982V32.1859C26.8028 32.9744 27.4443 33.6159 28.2328 33.6159ZM28.2677 28.7331H31.6856V32.1511H28.2677V28.7331ZM43.8307 3.34707H40.6992V2.22725C40.6992 0.999121 39.7001 0 38.472 0H38.1356C36.9076 0 35.9085 0.999121 35.9085 2.22725V3.34707H14.0921V2.22725C14.0921 0.999121 13.093 0 11.8648 0H11.5285C10.3004 0 9.30127 0.999121 9.30127 2.22725V3.34707H6.16992C4.14795 3.34707 2.50293 4.99209 2.50293 7.01406V46.3379C2.50293 48.3572 4.1457 50 6.16504 50H43.8357C45.8551 50 47.4978 48.3572 47.4978 46.3379V7.01406C47.4978 4.99209 45.8527 3.34707 43.8307 3.34707ZM37.3733 2.22725C37.3733 1.80684 37.7153 1.46484 38.1357 1.46484H38.4721C38.8925 1.46484 39.2345 1.80684 39.2345 2.22725V3.34707H37.3733V2.22725ZM10.7662 2.22725C10.7662 1.80684 11.1082 1.46484 11.5286 1.46484H11.8649C12.2854 1.46484 12.6273 1.80684 12.6273 2.22725V3.34707H10.7663V2.22725H10.7662ZM46.0329 46.3379C46.0329 47.5495 45.0473 48.5352 43.8356 48.5352H6.16494C4.95332 48.5352 3.96768 47.5495 3.96768 46.3379V46.3333C4.58135 46.7957 5.34414 47.0703 6.16992 47.0703H35.8655C36.845 47.0703 37.7659 46.6889 38.4585 45.9962L46.0329 38.4218V46.3379ZM37.7111 44.672C37.7686 44.435 37.7998 44.1878 37.7998 43.9334V39.0443C37.7998 38.1225 38.5499 37.3724 39.4719 37.3724H44.3608C44.6152 37.3724 44.8624 37.3411 45.0994 37.2837L37.7111 44.672ZM46.0329 13.8139H14.8245C14.42 13.8139 14.0921 14.1418 14.0921 14.5463C14.0921 14.9508 14.42 15.2787 14.8245 15.2787H46.0329V34.2355C46.0329 35.1575 45.2828 35.9076 44.3608 35.9076H39.4719C37.7422 35.9076 36.335 37.3148 36.335 39.0444V43.9335C36.335 44.8555 35.5849 45.6056 34.663 45.6056H6.16992C4.95566 45.6056 3.96777 44.6177 3.96777 43.4033V15.2787H11.8948C12.2993 15.2787 12.6272 14.9508 12.6272 14.5463C12.6272 14.1418 12.2993 13.8139 11.8948 13.8139H3.96768V7.01406C3.96768 5.7998 4.95557 4.81191 6.16982 4.81191H9.30127V6.96543C9.30127 8.19355 10.3004 9.19268 11.5285 9.19268C11.933 9.19268 12.2609 8.86475 12.2609 8.46025C12.2609 8.05576 11.933 7.72783 11.5285 7.72783C11.1081 7.72783 10.7661 7.38584 10.7661 6.96543V4.81191H35.9085V6.96543C35.9085 8.19355 36.9076 9.19268 38.1357 9.19268C38.5402 9.19268 38.8682 8.86475 38.8682 8.46025C38.8682 8.05576 38.5402 7.72783 38.1357 7.72783C37.7153 7.72783 37.3733 7.38584 37.3733 6.96543V4.81191H43.8308C45.045 4.81191 46.0329 5.7998 46.0329 7.01406V13.8139ZM11.815 27.2683H8.32734C7.53887 27.2683 6.89736 27.9098 6.89736 28.6982V32.1859C6.89736 32.9744 7.53887 33.6159 8.32734 33.6159H11.815C12.6035 33.6159 13.245 32.9744 13.245 32.1859V28.6982C13.245 27.9097 12.6035 27.2683 11.815 27.2683ZM11.7802 32.1511H8.36221V28.7331H11.7802V32.1511ZM18.2801 24.5561H21.7678C22.5562 24.5561 23.1978 23.9146 23.1978 23.1261V19.6384C23.1978 18.8499 22.5562 18.2084 21.7678 18.2084H18.2801C17.4916 18.2084 16.8501 18.8499 16.8501 19.6384V23.1261C16.8501 23.9146 17.4916 24.5561 18.2801 24.5561ZM18.3149 19.6732H21.7329V23.0912H18.3149V19.6732ZM28.2668 41.2109C28.2486 40.8226 27.928 40.5134 27.5352 40.5134C27.1307 40.5134 26.8027 40.8413 26.8027 41.2458C26.8027 42.0343 27.4442 42.6758 28.2327 42.6758H31.7204C32.5089 42.6758 33.1504 42.0343 33.1504 41.2458V37.7581C33.1504 36.9696 32.5089 36.3281 31.7204 36.3281H28.2327C27.4442 36.3281 26.8027 36.9696 26.8027 37.7581V38.764C26.8027 39.1685 27.1307 39.4964 27.5352 39.4964C27.9396 39.4964 28.2676 39.1685 28.2676 38.764V37.793H31.6855V41.2109H28.2668ZM18.2801 33.6159H21.7678C22.5562 33.6159 23.1978 32.9744 23.1978 32.1859V28.6982C23.1978 27.9098 22.5562 27.2683 21.7678 27.2683H18.2801C17.4916 27.2683 16.8501 27.9098 16.8501 28.6982V32.1859C16.8501 32.9744 17.4916 33.6159 18.2801 33.6159ZM18.3149 28.7331H21.7329V32.1511H18.3149V28.7331ZM18.2801 42.6758H21.7678C22.5562 42.6758 23.1978 42.0343 23.1978 41.2458V37.7581C23.1978 36.9696 22.5562 36.3281 21.7678 36.3281H18.2801C17.4916 36.3281 16.8501 36.9696 16.8501 37.7581V41.2458C16.8501 42.0343 17.4916 42.6758 18.2801 42.6758ZM18.3149 37.793H21.7329V41.2109H18.3149V37.793Z" fill="#759178"/>
</svg>
