<svg width="50" height="50" viewBox="0 0 50 50" fill="none" xmlns="http://www.w3.org/2000/svg">
<path d="M47.141 47.4397L44.9291 34.4902C44.6907 33.095 43.701 31.9742 42.3458 31.5654L36.3798 29.7653C36.2562 28.3069 35.6583 26.9311 34.6632 25.842C33.8672 24.9709 32.866 24.3366 31.7624 23.9866C31.9513 23.7771 32.1264 23.5682 32.287 23.3639C33.7058 21.5595 34.4653 19.5716 34.6587 18.215H35.1189C36.316 18.215 37.2899 17.2412 37.2899 16.044V14.9312C37.2899 14.1322 36.8405 13.4083 36.1646 13.0326V10.3564C36.1646 9.95205 35.8368 9.62422 35.4324 9.62422C35.028 9.62422 34.7003 9.95195 34.7003 10.3564V13.3607C34.4151 13.4103 34.0749 13.4958 33.7269 13.6424C33.6912 13.6554 33.6565 13.6704 33.6237 13.6885C33.5451 13.7243 33.4664 13.7621 33.388 13.8047V7.9041C33.388 6.27393 32.0618 4.94775 30.4316 4.94775H28.4106C27.7136 4.94775 27.0326 5.19062 26.493 5.63184L26.2946 5.79395C25.9304 6.0918 25.4706 6.25586 25 6.25586C24.5294 6.25586 24.0695 6.0918 23.7053 5.79395L23.507 5.63184C22.9674 5.19072 22.2864 4.94775 21.5894 4.94775H19.5682C17.938 4.94775 16.6118 6.27393 16.6118 7.9041V13.8047C16.5334 13.7621 16.4547 13.7243 16.3761 13.6885C16.3433 13.6704 16.3087 13.6554 16.273 13.6424C15.925 13.4958 15.5847 13.4103 15.2996 13.3607V5.76416C15.2996 3.39326 17.2285 1.46436 19.5994 1.46436H30.4003C32.7713 1.46436 34.7001 3.39326 34.7001 5.76416V6.91514C34.7001 7.31953 35.0279 7.64736 35.4322 7.64736C35.8365 7.64736 36.1644 7.31963 36.1644 6.91514V5.76416C36.1644 2.58584 33.5786 0 30.4003 0H19.5994C16.421 0 13.8353 2.58584 13.8353 5.76416V13.0327C13.1594 13.4084 12.71 14.1322 12.71 14.9312V16.0441C12.71 17.2413 13.6839 18.2151 14.881 18.2151H15.3412C15.5345 19.5717 16.2941 21.5596 17.7129 23.364C17.8733 23.5681 18.0483 23.7768 18.237 23.9861C15.6999 24.792 13.8497 27.073 13.6201 29.7653L7.6539 31.5654C6.29873 31.9742 5.30888 33.095 5.0706 34.4902L4.17236 39.7489C4.10429 40.1476 4.37226 40.5258 4.7708 40.5938C5.16923 40.6621 5.54765 40.394 5.61582 39.9954L6.51406 34.7367C6.6582 33.8926 7.25703 33.2146 8.07685 32.9674L13.5949 31.3024V32.7508C12.3301 32.9836 11.2538 33.8524 10.8105 35.0563C10.6929 35.3758 10.6197 35.7104 10.5932 36.0506L10.0599 42.8958C10.0196 43.4114 10.198 43.9249 10.5491 44.3043C10.9002 44.6838 11.3981 44.9016 11.9152 44.9016H12.8281C13.2325 44.9016 13.5603 44.5738 13.5603 44.1693C13.5603 43.7648 13.2325 43.4372 12.8281 43.4372H11.9152C11.805 43.4372 11.6989 43.3909 11.624 43.3099C11.5492 43.229 11.5112 43.1196 11.5198 43.0098L12.0531 36.1645C12.0692 35.9583 12.1135 35.7557 12.1848 35.5622C12.4932 34.7248 13.326 34.1577 14.2573 34.1512L14.3779 34.1503C14.3836 34.1502 14.3892 34.1502 14.3947 34.1502C15.2999 34.1502 16.1012 34.6635 16.4392 35.4614C16.534 35.6852 16.5916 35.9217 16.6105 36.1645L17.144 43.0099C17.1525 43.1196 17.1145 43.229 17.0397 43.31C16.9649 43.3908 16.8588 43.4372 16.7485 43.4372H15.8356C15.4312 43.4372 15.1034 43.7649 15.1034 44.1693C15.1034 44.5737 15.4312 44.9016 15.8356 44.9016H16.7485C17.2656 44.9016 17.7637 44.6839 18.1146 44.3043C18.4658 43.9247 18.6442 43.4113 18.604 42.8959L18.0705 36.0506C18.0393 35.65 17.944 35.2595 17.7875 34.89C17.3052 33.7517 16.2738 32.9602 15.0592 32.746V30.8606L17.5762 30.1012C17.8052 30.5835 18.259 31.6258 19.1579 33.8726C20.0639 36.1396 21.1899 39.0453 22.2699 41.8701C22.2776 41.8938 22.2865 41.917 22.2965 41.9396C23.0172 43.8255 23.7163 45.6726 24.3143 47.2659C24.4215 47.5517 24.6946 47.7409 24.9998 47.7409C25.305 47.7409 25.5781 47.5517 25.6853 47.2659C26.2832 45.6726 26.9823 43.8255 27.7031 41.9396C27.7132 41.917 27.722 41.8937 27.7297 41.8701C28.8089 39.047 29.9344 36.1431 30.8399 33.8768C31.74 31.6271 32.1942 30.5839 32.4233 30.1012L34.9403 30.8606V35.1854C33.1964 35.5241 31.8754 37.0622 31.8754 38.9038C31.8754 40.9928 33.5749 42.6924 35.664 42.6924C37.753 42.6924 39.4525 40.9929 39.4525 38.9038C39.4525 37.0683 38.1402 35.5339 36.4047 35.1885V31.3025L41.9228 32.9675C42.7427 33.2147 43.3414 33.8927 43.4856 34.7368L45.6976 47.6863C45.7343 47.9011 45.6771 48.111 45.5366 48.2775C45.3962 48.4439 45.1988 48.5357 44.981 48.5357H5.01865C4.80078 48.5357 4.60351 48.444 4.46298 48.2775C4.32255 48.111 4.26533 47.9012 4.30205 47.6863L5.03203 43.4127C5.10009 43.0141 4.83212 42.6358 4.43359 42.5678C4.03515 42.4994 3.65673 42.7677 3.58857 43.1662L2.85859 47.4398C2.7497 48.0777 2.92656 48.7272 3.34375 49.2219C3.76113 49.7164 4.37158 50 5.01865 50H44.981C45.628 50 46.2386 49.7164 46.6559 49.2218C47.073 48.7271 47.2499 48.0776 47.141 47.4397ZM34.7089 14.8524C35.099 14.7552 35.4122 14.7569 35.4157 14.757C35.5419 14.7587 35.6645 14.7292 35.7735 14.6721C35.8061 14.7532 35.8254 14.8404 35.8254 14.9312V16.0441C35.8254 16.4338 35.5084 16.7508 35.1187 16.7508H34.7089V14.8524ZM15.2907 16.7508H14.8809C14.4912 16.7508 14.1742 16.4338 14.1742 16.0441V14.9312C14.1742 14.8404 14.1936 14.7532 14.2261 14.6722C14.335 14.7293 14.4576 14.7588 14.5839 14.757C14.5894 14.758 14.9018 14.7563 15.2907 14.8528V16.7508ZM16.7551 17.5718V15.6481C16.977 15.7146 17.2196 15.7056 17.4436 15.6121C17.8279 15.4518 18.0762 15.0794 18.0762 14.6633V7.9041C18.0762 7.08145 18.7455 6.41211 19.5682 6.41211H21.5892C21.9493 6.41211 22.3012 6.5376 22.58 6.76553L22.7782 6.92764C23.4033 7.43877 24.1923 7.72012 24.9998 7.72012C25.8073 7.72012 26.5963 7.43867 27.2214 6.92764L27.4196 6.76553C27.6983 6.5376 28.0503 6.41211 28.4104 6.41211H30.4314C31.2541 6.41211 31.9234 7.08145 31.9234 7.9041V14.6634C31.9234 15.0794 32.1717 15.4519 32.556 15.6122C32.6843 15.6657 32.8186 15.6917 32.9519 15.6917C33.0512 15.6917 33.1497 15.6771 33.2445 15.6488V17.5718C33.2445 18.6408 32.5055 20.7168 31.1357 22.4588C30.682 23.0358 30.0988 23.6558 29.3808 24.1976C29.358 24.2128 29.3362 24.2293 29.3154 24.2469C28.203 25.0693 26.7727 25.6994 24.9998 25.6994C23.227 25.6994 21.7966 25.0693 20.6841 24.2468C20.6633 24.2293 20.6416 24.2128 20.6189 24.1977C19.9009 23.6558 19.3177 23.0358 18.8639 22.4588C17.4942 20.7169 16.7551 18.6408 16.7551 17.5718ZM29.7967 29.4014L24.9998 32.9867L20.2029 29.4014C20.6786 28.7968 20.9451 28.0207 20.9451 27.3281V26.1479C22.0731 26.7545 23.4191 27.1639 24.9998 27.1639C26.5805 27.1639 27.9266 26.7545 29.0545 26.1479V27.3281C29.0545 28.0207 29.321 28.7968 29.7967 29.4014ZM18.981 28.5841C18.5899 28.4352 18.1564 28.4107 17.7464 28.522C17.7284 28.5262 17.7108 28.531 17.6937 28.536L15.1642 29.2993C15.592 27.1956 17.3002 25.5212 19.4808 25.1969V27.3281C19.4808 27.7875 19.2757 28.2624 18.981 28.5841ZM20.9682 34.4618C20.9668 34.4584 20.9654 34.455 20.9642 34.4517C20.927 34.3578 20.8904 34.2652 20.8541 34.1737C20.8476 34.1571 20.841 34.1406 20.8345 34.1242C20.7989 34.0347 20.7637 33.9458 20.7289 33.8584C20.7265 33.8522 20.724 33.8462 20.7216 33.8399C20.6131 33.5672 20.5085 33.3056 20.4079 33.0549C20.4006 33.0367 20.3933 33.0183 20.3859 33.0002C20.357 32.9283 20.3286 32.8575 20.3004 32.7876C20.29 32.7619 20.2798 32.7365 20.2695 32.7111C20.2422 32.6434 20.215 32.576 20.1883 32.5101C20.1803 32.4903 20.1725 32.4712 20.1645 32.4516C20.116 32.3318 20.0686 32.2151 20.0223 32.1014C20.0098 32.0706 19.997 32.0393 19.9846 32.0089C19.9664 31.9646 19.9487 31.9214 19.931 31.8779C19.9118 31.8311 19.8927 31.7846 19.8739 31.7389C19.8669 31.7218 19.8596 31.7037 19.8525 31.6867C19.8469 31.673 19.8417 31.6604 19.8361 31.6469C19.7516 31.4414 19.6712 31.2478 19.5949 31.0656C19.5943 31.0642 19.5936 31.0627 19.5931 31.0612C19.5524 30.9643 19.5127 30.8695 19.4745 30.7793C19.4547 30.7325 19.4352 30.6865 19.416 30.6414L23.5415 33.7248L21.8177 34.4571C21.8146 34.4584 21.8115 34.4597 21.8085 34.461L21.0888 34.7668C21.0479 34.6636 21.008 34.5624 20.9682 34.4618ZM22.7152 38.945C22.5706 38.5697 22.4249 38.1923 22.2789 37.8152C22.0506 37.2255 21.8325 36.6647 21.6238 36.1306L21.8971 36.0145L23.0135 37.3122L22.7152 38.945ZM25.014 44.896C24.993 44.8524 24.968 44.8113 24.9391 44.773C24.6082 43.8985 24.1883 42.792 23.7235 41.5745L24.4071 37.8318H25.5925L26.2761 41.5745C25.7891 42.85 25.3517 44.0033 25.014 44.896ZM25.8671 36.3676H24.1325L23.3117 35.4135L24.9998 34.6964L26.6879 35.4135L25.8671 36.3676ZM27.7207 37.8152C27.5747 38.1923 27.429 38.5697 27.2844 38.945L26.9861 37.3121L28.1025 36.0144L28.3758 36.1305C28.1671 36.6646 27.949 37.2255 27.7207 37.8152ZM30.5252 30.7793C30.489 30.8648 30.4513 30.9546 30.4129 31.0462C30.4079 31.0581 30.4028 31.0701 30.3978 31.0821C30.3599 31.173 30.3212 31.2657 30.2811 31.3623C30.2785 31.3687 30.2758 31.3754 30.2731 31.3818C30.2386 31.4651 30.2031 31.5511 30.1671 31.6387C30.1603 31.6551 30.154 31.6702 30.1473 31.6867C30.1393 31.7063 30.1307 31.7271 30.1226 31.747C30.1065 31.786 30.0902 31.8259 30.0738 31.8657C30.0537 31.9148 30.0337 31.9638 30.0131 32.0141C30.0065 32.0301 29.9998 32.0468 29.9932 32.0629C29.9422 32.1878 29.8898 32.3165 29.8363 32.4487C29.8279 32.4694 29.8196 32.4897 29.8112 32.5107C29.7848 32.5761 29.7578 32.6428 29.7308 32.7099C29.7202 32.7361 29.7096 32.7623 29.6989 32.7889C29.671 32.8581 29.6428 32.9282 29.6143 32.9993C29.6062 33.0191 29.5981 33.0395 29.5901 33.0594C29.4908 33.3066 29.3878 33.5646 29.2809 33.8333C29.2773 33.8422 29.2738 33.8509 29.2703 33.8599C29.2357 33.9467 29.2008 34.035 29.1654 34.1239C29.1589 34.1405 29.1522 34.1571 29.1456 34.1738C29.1091 34.2658 29.0723 34.3588 29.035 34.4532C29.0343 34.455 29.0336 34.4567 29.0329 34.4584C28.9927 34.5602 28.9522 34.6625 28.911 34.767L28.1906 34.4609C28.1881 34.4599 28.1855 34.4588 28.1831 34.4577L26.4583 33.725L30.5838 30.6416C30.5644 30.6865 30.5449 30.7324 30.5252 30.7793ZM32.3059 28.5361C32.3058 28.5361 32.3056 28.536 32.3055 28.536C32.3049 28.5358 32.3042 28.5357 32.3036 28.5354C31.8788 28.408 31.4257 28.4291 31.0187 28.5841C30.7239 28.2624 30.5189 27.7875 30.5189 27.3281V25.1958C32.7132 25.5192 34.4162 27.1779 34.8385 29.3002L32.3059 28.5361ZM37.9882 38.9038C37.9882 40.1854 36.9455 41.228 35.664 41.228C34.3824 41.228 33.3397 40.1854 33.3397 38.9038C33.3397 37.6222 34.3824 36.5796 35.664 36.5796C36.9455 36.5796 37.9882 37.6222 37.9882 38.9038Z" fill="#759178"/>
</svg>
