<svg width="50" height="50" viewBox="0 0 50 50" fill="none" xmlns="http://www.w3.org/2000/svg">
<g clip-path="url(#clip0)">
<path d="M49.2676 11.7653C48.863 11.7653 48.5352 12.0932 48.5352 12.4977V38.3929H30.0362L29.7353 37.8716C30.1372 37.4636 30.4861 37.0038 30.7729 36.5037H42.5595C42.9641 36.5037 43.2919 36.1758 43.2919 35.7713V34.7847C43.2919 33.8831 44.0255 33.1496 44.9271 33.1496H45.9136C46.3182 33.1496 46.646 32.8217 46.646 32.4172V11.7011C46.646 11.2967 46.3182 10.9687 45.9136 10.9687H44.9271C44.0255 10.9687 43.2919 10.2352 43.2919 9.33357V8.34705C43.2919 7.94255 42.9641 7.61462 42.5595 7.61462H15.4776C15.0731 7.61462 14.7452 7.94255 14.7452 8.34705C14.7452 8.75154 15.0731 9.07947 15.4776 9.07947H41.827V9.33357C41.827 11.0428 43.2176 12.4336 44.927 12.4336H45.1811V31.6849H44.927C43.2176 31.6849 41.827 33.0756 41.827 34.7849V35.039H31.3926C31.5599 34.4565 31.6514 33.8422 31.6514 33.2066C31.6514 29.539 28.6676 26.5553 25.0001 26.5553C21.3326 26.5553 18.3487 29.539 18.3487 33.2066C18.3487 33.8423 18.4402 34.4565 18.6075 35.039H8.17295V34.7849C8.17295 33.0756 6.78232 31.6849 5.07295 31.6849H4.81885V12.4336H5.07295C6.78223 12.4336 8.17295 11.0429 8.17295 9.33357V9.07947H12.0578C12.4623 9.07947 12.7902 8.75154 12.7902 8.34705C12.7902 7.94255 12.4623 7.61462 12.0578 7.61462H7.44053C7.03604 7.61462 6.70811 7.94255 6.70811 8.34705V9.33357C6.70811 10.2351 5.97461 10.9687 5.07295 10.9687H4.08652C3.68203 10.9687 3.3541 11.2967 3.3541 11.7011V32.4174C3.3541 32.8219 3.68203 33.1498 4.08652 33.1498H5.07305C5.97461 33.1498 6.7082 33.8833 6.7082 34.7849V35.7715C6.7082 36.176 7.03613 36.5039 7.44063 36.5039H19.2272C19.514 37.004 19.8629 37.4637 20.2649 37.8718L19.964 38.393H1.46484V32.4868C1.46484 32.0823 1.13691 31.7544 0.732422 31.7544C0.32793 31.7544 0 32.0823 0 32.4868V39.1255C0 39.53 0.32793 39.8579 0.732422 39.8579H19.1181L17.4958 42.6677C17.3986 42.8359 17.3724 43.0358 17.4226 43.2234C17.4729 43.411 17.5956 43.5711 17.7639 43.6681L21.1812 45.6411C21.2965 45.7077 21.4225 45.7393 21.5467 45.7393C21.7998 45.7393 22.046 45.6079 22.1816 45.373L25 40.4916L27.8183 45.373C27.9153 45.5413 28.0754 45.6639 28.263 45.7143C28.3254 45.731 28.3891 45.7392 28.4525 45.7392C28.58 45.7392 28.7064 45.7059 28.8188 45.6411L32.2359 43.6681C32.5862 43.4659 32.7062 43.0179 32.504 42.6677L30.8818 39.8579H49.2676C49.6722 39.8579 50 39.53 50 39.1255V12.4977C50 12.0932 49.6722 11.7653 49.2676 11.7653ZM25 28.0201C27.8598 28.0201 30.1864 30.3468 30.1864 33.2066C30.1864 36.0665 27.8598 38.393 25 38.393C22.1401 38.393 19.8135 36.0664 19.8135 33.2066C19.8135 30.3469 22.1401 28.0201 25 28.0201ZM21.2794 44.0063L19.1307 42.7658L21.4169 38.8058C22.1148 39.2541 22.9012 39.5756 23.744 39.7373L21.2794 44.0063ZM28.7207 44.0063L26.256 39.7374C27.0988 39.5756 27.8851 39.2541 28.5831 38.8058L30.8693 42.7658L28.7207 44.0063Z" fill="#759178"/>
<path d="M49.2676 4.26062H0.732422C0.32793 4.26062 0 4.58855 0 4.99304V29.0667C0 29.4712 0.32793 29.7991 0.732422 29.7991C1.13691 29.7991 1.46484 29.4712 1.46484 29.0667V5.72546H48.5352V9.07507C48.5352 9.47957 48.863 9.8075 49.2676 9.8075C49.6722 9.8075 50 9.47957 50 9.07507V4.99304C50 4.58855 49.6722 4.26062 49.2676 4.26062Z" fill="#759178"/>
<path d="M24.9994 36.5039C26.8176 36.5039 28.2968 35.0248 28.2968 33.2067C28.2968 31.3885 26.8176 29.9093 24.9994 29.9093C23.1813 29.9093 21.7021 31.3885 21.7021 33.2067C21.7021 35.0248 23.1813 36.5039 24.9994 36.5039ZM24.9994 31.3741C26.0099 31.3741 26.8319 32.1962 26.8319 33.2067C26.8319 34.2171 26.0099 35.0391 24.9994 35.0391C23.989 35.0391 23.167 34.2171 23.167 33.2067C23.167 32.1962 23.989 31.3741 24.9994 31.3741Z" fill="#759178"/>
<path d="M30.9189 15.3931C31.3235 15.3931 31.6513 15.0651 31.6513 14.6606V11.5039C31.6513 11.0994 31.3235 10.7715 30.9189 10.7715H19.0811C18.6766 10.7715 18.3486 11.0994 18.3486 11.5039V14.6606C18.3486 15.0651 18.6766 15.3931 19.0811 15.3931H30.9189ZM19.8135 12.2363H30.1864V13.9282H19.8135V12.2363Z" fill="#759178"/>
<path d="M10.457 20.9741C10.457 21.3786 10.785 21.7065 11.1895 21.7065H38.8111C39.2157 21.7065 39.5436 21.3786 39.5436 20.9741C39.5436 20.5696 39.2157 20.2417 38.8111 20.2417H11.1895C10.785 20.2417 10.457 20.5696 10.457 20.9741Z" fill="#759178"/>
<path d="M14.4023 17.8174C14.4023 18.2219 14.7303 18.5498 15.1348 18.5498H34.8645C35.2691 18.5498 35.597 18.2219 35.597 17.8174C35.597 17.4129 35.2691 17.085 34.8645 17.085H15.1348C14.7303 17.085 14.4023 17.4129 14.4023 17.8174Z" fill="#759178"/>
<path d="M38.8111 23.3984H11.1895C10.785 23.3984 10.457 23.7264 10.457 24.1309C10.457 24.5354 10.785 24.8633 11.1895 24.8633H38.8111C39.2157 24.8633 39.5436 24.5354 39.5436 24.1309C39.5436 23.7264 39.2156 23.3984 38.8111 23.3984Z" fill="#759178"/>
<path d="M14.6121 29.5563C15.0414 29.7288 15.5258 29.6245 15.846 29.2904L16.0921 29.0336C16.1547 29.3747 16.4534 29.6331 16.8124 29.6331C17.2169 29.6331 17.5448 29.3051 17.5448 28.9006V28.2056C17.5448 27.7429 17.2674 27.3325 16.8381 27.1599C16.4088 26.9876 15.9245 27.0917 15.6042 27.4258L15.3702 27.67V27.4858C15.3702 27.0283 15.0971 26.6196 14.6744 26.4445C14.2517 26.2695 13.7696 26.3653 13.4463 26.6888L10.6716 29.4635C10.3855 29.7496 10.3855 30.2133 10.6716 30.4993C10.8145 30.6423 11.002 30.7138 11.1894 30.7138C11.3768 30.7138 11.5643 30.6423 11.7073 30.4993L13.9052 28.3013V28.5106C13.9053 28.9733 14.1828 29.3838 14.6121 29.5563Z" fill="#759178"/>
<path d="M36.61 29.5564C37.0392 29.7287 37.5236 29.6244 37.8438 29.2905L38.09 29.0336C38.1526 29.3746 38.4513 29.633 38.8104 29.633C39.215 29.633 39.5428 29.3051 39.5428 28.9006V28.2056C39.5428 27.7429 39.2654 27.3324 38.8361 27.1599C38.4068 26.9873 37.9225 27.0917 37.6022 27.4257L37.3682 27.6698V27.4858C37.3682 27.0282 37.0951 26.6195 36.6725 26.4445C36.25 26.2694 35.7678 26.3654 35.4442 26.6889L32.6696 29.4636C32.3836 29.7496 32.3836 30.2134 32.6696 30.4993C32.8127 30.6423 33.0002 30.7139 33.1876 30.7139C33.375 30.7139 33.5625 30.6424 33.7055 30.4993L35.9035 28.3014V28.5107C35.9032 28.9734 36.1806 29.3838 36.61 29.5564Z" fill="#759178"/>
</g>
<defs>
<clipPath id="clip0">
<rect width="50" height="50" fill="white"/>
</clipPath>
</defs>
</svg>
