<svg width="50" height="50" viewBox="0 0 50 50" fill="none" xmlns="http://www.w3.org/2000/svg">
<path d="M5.12109 20.3232H15.2122C15.6167 20.3232 15.9446 19.9953 15.9446 19.5908C15.9446 19.1863 15.6167 18.8584 15.2122 18.8584H5.12109C4.7166 18.8584 4.38867 19.1863 4.38867 19.5908C4.38867 19.9953 4.7166 20.3232 5.12109 20.3232Z" fill="#759178"/>
<path d="M5.12109 25.3577H15.2122C15.6167 25.3577 15.9446 25.0297 15.9446 24.6252C15.9446 24.2207 15.6167 23.8928 15.2122 23.8928H5.12109C4.7166 23.8928 4.38867 24.2207 4.38867 24.6252C4.38867 25.0297 4.7166 25.3577 5.12109 25.3577Z" fill="#759178"/>
<path d="M5.12109 30.392H31.293C31.6975 30.392 32.0254 30.064 32.0254 29.6595C32.0254 29.2551 31.6975 28.9271 31.293 28.9271H5.12109C4.7166 28.9271 4.38867 29.2551 4.38867 29.6595C4.38867 30.064 4.7166 30.392 5.12109 30.392Z" fill="#759178"/>
<path d="M35.6825 27.7948C35.278 27.7948 34.9501 28.1227 34.9501 28.5272V34.0612C34.9501 35.6024 33.6963 36.8563 32.155 36.8563H12.6032C11.9432 36.8563 11.3299 37.1534 10.9208 37.6714L4.94668 45.2346V37.5876C4.94668 37.1867 4.62441 36.8603 4.22363 36.8552C2.70244 36.8358 1.46484 35.5825 1.46484 34.0613V16.5206C1.46484 14.9794 2.71865 13.7255 4.25996 13.7255H15.4205C15.825 13.7255 16.1529 13.3975 16.1529 12.993C16.1529 12.5885 15.825 12.2606 15.4205 12.2606H4.25996C1.91094 12.2606 0 14.1716 0 16.5206V34.0613C0 36.1335 1.50664 37.8796 3.48184 38.2485V45.783C3.48184 46.3337 3.81797 46.8062 4.33818 46.9869C4.85498 47.1663 5.41279 47.0079 5.75625 46.5729L12.0703 38.5794C12.1999 38.4153 12.3941 38.3212 12.6032 38.3212H32.1551C34.504 38.3212 36.415 36.4102 36.415 34.0612V28.5272C36.4149 28.1227 36.087 27.7948 35.6825 27.7948Z" fill="#759178"/>
<path d="M46.197 2.94043H21.9136C19.8165 2.94043 18.1104 4.64658 18.1104 6.74365V22.0133C18.1104 24.1104 19.8165 25.8165 21.9136 25.8165H38.934C39.0868 25.8165 39.2288 25.8854 39.3235 26.0053L44.82 32.9639C45.1442 33.3742 45.671 33.5249 46.1602 33.3549C46.6517 33.1842 46.9692 32.7377 46.9692 32.2174V25.7363C48.6944 25.3764 50.0002 23.8361 50.0002 22.0133V6.74365C50.0002 4.64658 48.294 2.94043 46.197 2.94043ZM48.5354 22.0133C48.5354 23.2859 47.5 24.3345 46.2274 24.3507C45.8267 24.3558 45.5044 24.6822 45.5044 25.083V31.4669L40.473 25.0971C40.0987 24.6232 39.5377 24.3516 38.934 24.3516H21.9136C20.6242 24.3516 19.5752 23.3025 19.5752 22.0132V6.74365C19.5752 5.4543 20.6242 4.40527 21.9136 4.40527H46.1971C47.4863 4.40527 48.5354 5.4543 48.5354 6.74365V22.0133Z" fill="#759178"/>
<path d="M40.8899 17.7535C40.7918 17.361 40.3944 17.1223 40.0018 17.2205C39.6093 17.3185 39.3707 17.7161 39.4688 18.1085C39.7127 19.0852 39.6086 19.7322 39.6322 20.4025H28.4787C28.5115 20.2769 27.9057 16.089 31.7854 14.3672C32.4373 14.7978 33.2174 15.0494 34.0555 15.0494C34.8931 15.0494 35.6728 14.7981 36.3245 14.3679C36.9319 14.638 37.4822 15.0112 37.963 15.483C38.1056 15.6229 38.2908 15.6926 38.476 15.6926C38.6657 15.6926 38.8554 15.6194 38.9988 15.4732C39.2821 15.1844 39.2777 14.7208 38.9891 14.4375C38.5219 13.979 38.0022 13.5945 37.4379 13.2856C37.9088 12.6147 38.1863 11.7987 38.1863 10.9186C38.1863 8.64087 36.3332 6.78784 34.0556 6.78784C31.7779 6.78784 29.9248 8.64097 29.9248 10.9186C29.9248 11.7978 30.2018 12.6131 30.6719 13.2836C26.4421 15.5866 27.0344 20.3453 27.014 20.4277C27.014 21.2214 27.6598 21.8672 28.4535 21.8672H39.6577C40.4515 21.8672 41.0973 21.2214 41.0973 20.4277C41.0728 19.8019 41.1928 18.966 40.8899 17.7535ZM34.0555 8.25269C35.5255 8.25269 36.7214 9.44868 36.7214 10.9186C36.7214 12.3885 35.5254 13.5845 34.0555 13.5845C32.5856 13.5845 31.3896 12.3886 31.3896 10.9186C31.3896 9.44858 32.5855 8.25269 34.0555 8.25269Z" fill="#759178"/>
</svg>
