<svg width="50" height="50" viewBox="0 0 50 50" fill="none" xmlns="http://www.w3.org/2000/svg">
<g clip-path="url(#clip0)">
<path d="M20.1814 40.3176H10.5213C9.15354 40.3176 8.04078 39.2048 8.04078 37.837V35.1206C8.25779 35.1712 8.4806 35.1992 8.70684 35.1992C8.80965 35.1992 8.91324 35.1939 9.01702 35.1831C9.18725 35.1654 9.35355 35.1327 9.51502 35.0875V37.837C9.51502 38.3919 9.96644 38.8433 10.5213 38.8433H19.9879C20.395 38.8433 20.725 38.5134 20.725 38.1062C20.725 37.699 20.395 37.3691 19.9879 37.3691H10.9893V34.1251C10.9942 34.1191 10.9995 34.1135 11.0043 34.1074C11.9754 32.9116 11.8539 31.1795 10.7671 30.1272C11.2418 29.9493 11.677 29.648 12.0189 29.227C12.99 28.0312 12.8684 26.2991 11.7817 25.2467C12.2563 25.0688 12.6915 24.7676 13.0335 24.3466C13.5306 23.7344 13.7596 22.9652 13.6782 22.1808C13.5968 21.3965 13.2149 20.6906 12.6027 20.1935L10.9892 18.8832V4.42273H14.2531L14.2742 4.48937C14.5198 5.26325 15.2303 5.78326 16.0422 5.78326H21.7394C22.5513 5.78326 23.2618 5.26335 23.5075 4.48927L23.5288 4.42273H26.458V14.652C26.458 15.0592 26.788 15.3891 27.1952 15.3891C27.6023 15.3891 27.9323 15.0592 27.9323 14.652V3.95481C27.9323 3.3999 27.4809 2.94849 26.9261 2.94849H23.3302C22.8038 2.94849 22.343 3.2857 22.1837 3.78753L22.1025 4.04336C22.0521 4.20228 21.9062 4.30902 21.7396 4.30902H16.0424C15.8758 4.30902 15.7299 4.20228 15.6795 4.04346L15.5983 3.78753C15.4391 3.2857 14.9785 2.94849 14.4519 2.94849H10.5213C9.96644 2.94849 9.51502 3.4 9.51502 3.95481V17.69C9.07953 17.3655 8.57249 17.1706 8.04078 17.1197V9.61699C8.04078 9.2098 7.71075 8.87987 7.30366 8.87987C6.89903 8.87987 6.57086 9.20587 6.56693 9.60962C6.02559 9.28833 5.39805 9.14936 4.76049 9.2155C3.97609 9.29688 3.27032 9.67881 2.7732 10.291C2.27609 10.9032 2.04709 11.6724 2.12837 12.4568C2.20975 13.2411 2.59168 13.9469 3.20388 14.4441L6.56653 17.1748V17.3547C6.14097 17.541 5.76287 17.8267 5.46154 18.1977C4.96442 18.8099 4.73542 19.5791 4.8167 20.3634C4.88894 21.0603 5.19903 21.6947 5.69644 22.1763C5.2118 22.3582 4.78191 22.6656 4.44687 23.0781C3.47553 24.2743 3.59731 26.0069 4.68461 27.0592C4.20981 27.2368 3.77431 27.5373 3.43229 27.9586C2.93508 28.5708 2.70608 29.3399 2.78746 30.1243C2.86883 30.9086 3.25076 31.6145 3.86297 32.1117L6.56644 34.3071V37.8369C6.56644 40.0176 8.34054 41.7917 10.5212 41.7917H20.1813C20.5884 41.7917 20.9184 41.4618 20.9184 41.0546C20.9184 40.6474 20.5885 40.3176 20.1814 40.3176ZM4.13324 13.2996C3.8268 13.0507 3.63554 12.6974 3.59475 12.3046C3.55406 11.9119 3.66866 11.5268 3.91761 11.2203C4.16646 10.9138 4.51979 10.7227 4.91263 10.6818C5.30497 10.6409 5.69044 10.7556 5.99689 11.0046L6.56653 11.4673V15.2755L4.13324 13.2996ZM6.60604 19.1269C6.8549 18.8205 7.20822 18.6293 7.60106 18.5885C7.65295 18.5831 7.70475 18.5804 7.75635 18.5804C8.09425 18.5804 8.41946 18.6954 8.68542 18.9113L11.6736 21.3378C11.9801 21.5867 12.1713 21.94 12.2121 22.3327C12.2528 22.7255 12.1382 23.1106 11.8893 23.417C11.3755 24.0497 10.4428 24.1468 9.80997 23.6326L6.82178 21.2061C6.51533 20.9573 6.32407 20.6039 6.28328 20.2112C6.2425 19.8186 6.35719 19.4335 6.60604 19.1269ZM5.59147 24.0075C5.84032 23.701 6.19365 23.5099 6.58649 23.469C6.96291 23.4304 7.33177 23.5352 7.63173 23.7632L8.88051 24.7772C8.89466 24.7887 8.9096 24.7983 8.92385 24.8095L10.6588 26.2184C11.2916 26.7322 11.3883 27.665 10.8745 28.2976C10.3607 28.9303 9.42785 29.0271 8.7951 28.5133L5.807 26.0868C5.17436 25.573 5.07765 24.6402 5.59147 24.0075ZM4.25403 29.9723C4.21335 29.5796 4.32794 29.1946 4.57689 28.888C4.8686 28.5288 5.29544 28.3423 5.72572 28.3423C6.03581 28.3423 6.34707 28.4404 6.61145 28.6392L7.86593 29.6579C7.88028 29.6696 7.89562 29.6793 7.91016 29.6906L9.64436 31.0989C10.2771 31.6127 10.3738 32.5455 9.86 33.1782C9.61105 33.4846 9.25772 33.6759 8.86498 33.7167C8.47234 33.7573 8.08717 33.6427 7.78072 33.3938L4.79262 30.9673C4.48598 30.7184 4.29472 30.365 4.25403 29.9723Z" fill="#759178"/>
<path d="M7.30353 7.21279C7.71062 7.21279 8.04065 6.88286 8.04065 6.47567V3.95481C8.04065 2.587 9.15351 1.47424 10.5212 1.47424H26.9258C28.2935 1.47424 29.4063 2.587 29.4063 3.95481V17.5568C29.4063 17.964 29.7362 18.2939 30.1434 18.2939C30.5506 18.2939 30.8805 17.964 30.8805 17.5568V3.95481C30.8806 1.77411 29.1065 0 26.9258 0H10.5212C8.34051 0 6.56641 1.77411 6.56641 3.95481V6.47557C6.56641 6.88276 6.89644 7.21279 7.30353 7.21279Z" fill="#759178"/>
<path d="M47.7123 48.7854L42.6834 42.8698C42.4198 42.5596 41.9546 42.522 41.6445 42.7857C41.3343 43.0494 41.2966 43.5145 41.5604 43.8246L46.5892 49.7403C46.735 49.9118 46.9424 50 47.1512 50C47.3199 50 47.4896 49.9424 47.6283 49.8245C47.9383 49.5608 47.9761 49.0955 47.7123 48.7854Z" fill="#759178"/>
<path d="M29.6628 46.7367C29.5484 46.5873 29.3812 46.4875 29.1955 46.4574C26.6328 46.0431 24.56 44.0562 24.0377 41.5134L23.766 40.1904C23.4586 38.6935 23.7061 37.138 24.4629 35.8104L28.1093 29.4133C28.5835 28.5814 28.5095 27.5559 27.9208 26.8006L24.5054 22.4196C23.5062 21.1379 23.5563 19.3187 24.6245 18.094L24.807 17.8847C24.9046 17.7727 25.026 17.754 25.0896 17.7528C25.1549 17.7507 25.2754 17.7656 25.3772 17.8737L28.6362 21.3314C28.9154 21.6278 29.3818 21.6413 29.6783 21.3622C29.9745 21.083 29.9882 20.6164 29.709 20.3201L26.4501 16.8624C26.091 16.4814 25.5849 16.2678 25.0612 16.2787C24.5377 16.2888 24.0401 16.5209 23.6959 16.9155L23.5134 17.1248C21.9821 18.8806 21.9104 21.4884 23.3427 23.3259L26.7581 27.7069C26.978 27.989 27.0057 28.3722 26.8285 28.6831L23.1822 35.0803C22.248 36.719 21.9425 38.6392 22.322 40.4869L22.5936 41.8099C23.2181 44.8509 25.6388 47.2477 28.6657 47.8592L30.0853 49.7112C30.2305 49.9005 30.4494 49.9999 30.6709 49.9999C30.8273 49.9999 30.985 49.9503 31.1188 49.8478C31.4419 49.6001 31.5031 49.1374 31.2554 48.8143L29.6628 46.7367Z" fill="#759178"/>
<path d="M38.7403 38.2307C38.5802 38.0424 38.492 37.8026 38.492 37.5555V33.7605C38.492 31.102 37.4879 28.5726 35.6645 26.638L31.8654 22.6072C31.5862 22.3109 31.1196 22.2973 30.8233 22.5765C30.5271 22.8557 30.5133 23.3222 30.7925 23.6186L34.5917 27.6493C36.1561 29.3092 37.0178 31.4795 37.0178 33.7606V37.5556C37.0178 38.1521 37.2306 38.731 37.617 39.1856L39.5192 41.4234C39.665 41.5949 39.8725 41.6832 40.0813 41.6832C40.25 41.6832 40.4196 41.6256 40.5583 41.5078C40.8685 41.244 40.9063 40.7789 40.6426 40.4687L38.7403 38.2307Z" fill="#759178"/>
<path d="M18.8913 8.03149C17.0008 8.03149 15.4629 9.56943 15.4629 11.46C15.4629 13.3504 17.0008 14.8884 18.8913 14.8884C19.4704 14.8884 20.016 14.7435 20.4949 14.4891L21.6266 15.6208C21.7705 15.7647 21.9592 15.8366 22.1478 15.8366C22.3364 15.8366 22.5251 15.7647 22.669 15.6207C22.9569 15.3328 22.9569 14.8662 22.669 14.5783L21.6214 13.5308C22.0591 12.9551 22.3197 12.2376 22.3197 11.4602C22.3198 9.56943 20.7818 8.03149 18.8913 8.03149ZM16.9371 11.46C16.9371 10.3824 17.8137 9.50574 18.8913 9.50574C19.9689 9.50574 20.8456 10.3824 20.8456 11.46C20.8456 12.5376 19.9689 13.4142 18.8913 13.4142C17.8137 13.4142 16.9371 12.5375 16.9371 11.46Z" fill="#759178"/>
<path d="M20.7932 33.1827H15.0281C14.909 33.1827 14.8121 33.0858 14.8121 32.9667V29.8127C14.8121 29.6936 14.909 29.5968 15.0281 29.5968H22.4274C22.8345 29.5968 23.1645 29.2669 23.1645 28.8597C23.1645 28.4525 22.8345 28.1226 22.4274 28.1226H15.0281C14.0961 28.1226 13.3379 28.8808 13.3379 29.8127V32.9667C13.3379 33.8986 14.0961 34.6569 15.0281 34.6569H20.7932C21.2003 34.6569 21.5304 34.327 21.5304 33.9198C21.5304 33.5126 21.2003 33.1827 20.7932 33.1827Z" fill="#759178"/>
</g>
<defs>
<clipPath id="clip0">
<rect width="50" height="50" fill="white"/>
</clipPath>
</defs>
</svg>
