<svg width="50" height="50" viewBox="0 0 50 50" fill="none" xmlns="http://www.w3.org/2000/svg">
<g clip-path="url(#clip0)">
<path d="M21.1454 7.21283C16.9892 8.85756 14.2612 12.9114 14.2598 17.3531C14.2598 18.9656 15.5643 20.2811 17.1898 20.2811C18.8128 20.2811 20.1199 18.968 20.1199 17.3531C20.1238 14.575 22.3598 12.3133 25.1596 12.3113C27.9072 12.3113 30.2062 14.6275 30.2062 17.3482C30.2052 19.4561 28.9345 21.3053 26.9714 22.0609C25.563 22.6008 24.3715 23.5313 23.5256 24.7536C21.9786 26.9869 22.2334 28.871 22.2334 31.7979C22.2334 32.0302 22.2607 32.2617 22.3145 32.4871C22.3945 32.8171 22.6876 33.0476 23.0265 33.0476C23.5044 33.0476 23.8497 32.6003 23.7395 32.1435C23.6821 31.9062 23.6975 32.0737 23.6975 28.9089C23.7014 26.4681 25.1918 24.3172 27.4968 23.4278C31.8475 21.7613 33.1276 16.1407 29.752 12.7662C25.6409 8.6598 18.6485 11.5859 18.655 17.353C18.653 18.1584 17.9967 18.8156 17.1899 18.8174C16.3832 18.8155 15.7259 18.1584 15.7249 17.353C15.7229 12.0737 20.1603 7.57797 25.7623 7.93617C30.6225 8.23842 34.6013 12.3167 34.6013 17.3538C34.6003 21.2905 32.224 24.7486 28.5487 26.1623C27.9822 26.3781 27.5008 26.751 27.156 27.2402C26.4919 28.1871 26.6285 28.7369 26.6285 31.7977C26.6266 32.6032 25.9692 33.2602 25.1635 33.2613C24.7592 33.2613 24.431 33.5902 24.431 33.9935C24.431 35.5312 28.0901 34.5945 28.0936 31.7977V28.9087C28.0954 28.2938 28.4715 27.7647 29.0741 27.5294C33.3328 25.8936 36.0701 21.8446 36.0662 17.354C36.0662 9.70482 28.293 4.37582 21.1454 7.21283Z" fill="#759178"/>
<path d="M27.663 39.108C26.5213 37.2169 23.8874 37.2561 22.7251 39.0052C21.4487 40.9267 22.7875 43.5528 25.1874 43.5528C27.3986 43.5528 28.872 41.1107 27.663 39.108ZM24.814 42.0422C24.246 41.9022 23.8401 41.4799 23.728 40.9127C23.428 39.2934 25.5681 38.4721 26.4087 39.8647C27.0902 40.9937 26.0938 42.3579 24.814 42.0422Z" fill="#759178"/>
<path d="M37.5374 3.37242C24.5272 -4.17621 7.8106 1.44752 1.96568 15.2749C-0.412837 20.8924 -0.610981 27.1839 1.25269 32.8323C2.54908 36.761 4.67916 39.6194 4.85074 39.7712L4.85367 39.7673L4.85171 39.7721C4.85367 39.7741 4.85562 39.7751 4.85855 39.778C4.85953 39.778 4.85953 39.7791 4.8605 39.78C4.86148 39.78 4.86148 39.781 4.86246 39.782C5.13785 40.0132 5.37134 39.947 5.469 39.947L5.47095 39.9461C5.48023 39.9461 5.54683 39.9311 5.60962 39.906C5.6106 39.906 5.61158 39.906 5.61158 39.906C5.61158 39.906 5.62798 39.8983 5.62818 39.8982H5.63013C6.10367 39.6949 6.18736 39.094 5.93091 38.7939C-5.3726 23.1948 5.92574 1.47448 25.0037 1.47448C38.1704 1.47448 48.5417 12.2121 48.5417 25.0041C48.5417 38.0066 38.0135 48.5337 25.0037 48.5337C20.0109 48.5337 15.2398 46.989 11.2071 44.0679C10.9825 43.9049 10.6729 43.8844 10.4287 44.0172L2.20689 48.4673C1.81597 48.6763 1.46314 48.335 1.46558 48.0347C1.46763 47.8594 1.28794 48.2433 4.58804 42.1494C4.85337 41.6607 4.49488 41.0686 3.94537 41.0686C3.67584 41.0686 3.42867 41.216 3.30084 41.4523C-0.0212353 47.5846 -0.00141083 47.3791 0.000639952 48.0347C0.00327667 49.4702 1.55835 50.485 2.90435 49.756L10.7247 45.5217C19.179 51.4164 30.4379 51.4993 38.983 45.7296C54.2815 35.3998 53.5054 12.635 37.5374 3.37242Z" fill="#759178"/>
</g>
<defs>
<clipPath id="clip0">
<rect width="50" height="50" fill="white"/>
</clipPath>
</defs>
</svg>
