<svg width="64" height="64" viewBox="0 0 64 64" fill="none" xmlns="http://www.w3.org/2000/svg">
<path d="M15.4331 47.6293H5.0791C4.56135 47.6293 4.1416 48.0489 4.1416 48.5668V58.9208C4.1416 59.4386 4.56135 59.8583 5.0791 59.8583H15.4331C15.9509 59.8583 16.3706 59.4386 16.3706 58.9208V48.5668C16.3706 48.0489 15.9509 47.6293 15.4331 47.6293ZM6.0166 57.9833V49.5043H14.4956V57.9833H6.0166Z" fill="#759178"/>
<path d="M12.3264 50.7352H8.18457C7.66682 50.7352 7.24707 51.1548 7.24707 51.6727V55.8145C7.24707 56.3324 7.66682 56.752 8.18457 56.752H12.3264C12.8442 56.752 13.2639 56.3324 13.2639 55.8145V51.6727C13.2639 51.1548 12.8442 50.7352 12.3264 50.7352ZM11.3889 54.877H9.12207V52.6102H11.3889V54.877Z" fill="#759178"/>
<path d="M25.7877 49.6998H19.5752C19.0574 49.6998 18.6377 50.1195 18.6377 50.6373C18.6377 51.1552 19.0574 51.5748 19.5752 51.5748H25.7877C26.3054 51.5748 26.7252 51.1552 26.7252 50.6373C26.7252 50.1195 26.3054 49.6998 25.7877 49.6998Z" fill="#759178"/>
<path d="M25.7874 53.8419H19.5752C19.0574 53.8419 18.6377 54.2615 18.6377 54.7794C18.6377 55.2972 19.0574 55.7169 19.5752 55.7169H25.7874C26.3052 55.7169 26.7249 55.2972 26.7249 54.7794C26.7249 54.2615 26.3052 53.8419 25.7874 53.8419Z" fill="#759178"/>
<path d="M31.9998 53.8419H28.8936C28.3758 53.8419 27.9561 54.2615 27.9561 54.7794C27.9561 55.2972 28.3758 55.7169 28.8936 55.7169H31.9998C32.5176 55.7169 32.9373 55.2972 32.9373 54.7794C32.9373 54.2615 32.5176 53.8419 31.9998 53.8419Z" fill="#759178"/>
<path d="M38.2122 6.21268H25.7871C25.2694 6.21268 24.8496 6.6323 24.8496 7.15018V11.292C24.8496 11.8098 25.2694 12.2294 25.7871 12.2294H38.2122C38.73 12.2294 39.1497 11.8098 39.1497 11.2919V7.15018C39.1497 6.6323 38.73 6.21268 38.2122 6.21268ZM37.2747 10.3545H26.7246V8.08768H37.2747V10.3545Z" fill="#759178"/>
<path d="M46.4958 16.5671H17.5039C16.9862 16.5671 16.5664 16.9867 16.5664 17.5046C16.5664 18.0223 16.9862 18.4421 17.5039 18.4421H46.4958C47.0135 18.4421 47.4333 18.0225 47.4333 17.5046C47.4333 16.9867 47.0135 16.5671 46.4958 16.5671Z" fill="#759178"/>
<path d="M46.4956 20.7078H17.5039C16.9862 20.7078 16.5664 21.1274 16.5664 21.6453C16.5664 22.1632 16.9862 22.5828 17.5039 22.5828H46.4958C47.0135 22.5828 47.4333 22.1632 47.4333 21.6453C47.4331 21.1274 47.0134 20.7078 46.4956 20.7078Z" fill="#759178"/>
<path d="M46.4956 24.8489H17.5039C16.9862 24.8489 16.5664 25.2685 16.5664 25.7864C16.5664 26.3043 16.9862 26.7239 17.5039 26.7239H46.4958C47.0135 26.7239 47.4333 26.3043 47.4333 25.7864C47.4331 25.2685 47.0134 24.8489 46.4956 24.8489Z" fill="#759178"/>
<path d="M40.2826 28.992H23.7158C23.1981 28.992 22.7783 29.4116 22.7783 29.9295C22.7783 30.4473 23.1981 30.867 23.7158 30.867H40.2826C40.8003 30.867 41.2201 30.4473 41.2201 29.9295C41.2201 29.4116 40.8003 28.992 40.2826 28.992Z" fill="#759178"/>
<path d="M62.9704 21.4532C62.9533 21.4371 62.9356 21.4221 62.9175 21.4074C62.3952 20.9711 61.7236 20.7079 60.9915 20.7079H53.6456V11.2488C53.6456 11.2383 53.6444 11.2281 53.644 11.2177C53.6436 11.2067 53.6431 11.1958 53.6424 11.1848C53.6398 11.1458 53.6354 11.1073 53.628 11.0697C53.6277 11.0682 53.6276 11.0666 53.6273 11.0651C53.619 11.0238 53.6075 10.9838 53.594 10.9446C53.5915 10.9371 53.5886 10.9298 53.5859 10.9224C53.5721 10.8856 53.5567 10.8497 53.5386 10.8152C53.5374 10.8127 53.5364 10.8102 53.535 10.8077C53.5155 10.7712 53.4932 10.7366 53.4692 10.7032C53.4639 10.6956 53.4581 10.6882 53.4525 10.6808C53.4272 10.6477 53.4005 10.6157 53.3711 10.5862C53.371 10.5861 53.3709 10.5859 53.3708 10.5858L43.0601 0.274927C42.8812 0.0961772 42.6421 0.00317725 42.3988 0.00267725C42.3838 0.00192725 42.3691 0.000427246 42.354 0.000427246H11.2917C10.774 0.000427246 10.3542 0.420052 10.3542 0.937927V20.7079H3.00837C2.29187 20.7079 1.63337 20.9601 1.11612 21.3798C1.11475 21.3808 1.1135 21.3819 1.11213 21.3829C1.10325 21.3902 1.09425 21.3974 1.0855 21.4047C1.06588 21.4204 1.04663 21.4369 1.02813 21.4544C0.398625 22.0063 0 22.8154 0 23.7163V60.9912C0 62.6502 1.3495 63.9997 3.00837 63.9997H48.9128C49.4305 63.9997 49.8503 63.5801 49.8503 63.0622C49.8503 62.5443 49.4305 62.1247 48.9128 62.1247H3.00837C2.3835 62.1247 1.875 61.6162 1.875 60.9912V23.7163C1.875 23.6312 1.88525 23.5484 1.90313 23.4686L31.4449 45.1799C31.61 45.3014 31.805 45.3621 32 45.3621C32.195 45.3621 32.39 45.3014 32.5551 45.1799L62.0967 23.4684C62.1146 23.5483 62.1249 23.6311 62.1249 23.7163V60.9912C62.1249 61.6162 61.6165 62.1247 60.9915 62.1247H52.6562C52.1385 62.1247 51.7188 62.5443 51.7188 63.0622C51.7188 63.5801 52.1385 63.9997 52.6562 63.9997H60.9916C62.6505 63.9997 64 62.6501 64 60.9912V23.7163C64 22.8147 63.6007 22.0051 62.9704 21.4532ZM10.3542 27.3528L3.864 22.5828H10.3542V27.3528ZM43.3349 3.2013L50.445 10.3113H43.3349V3.2013ZM51.7707 28.7308L32 43.2611L12.2292 28.7308V1.8753H41.4598V11.2488C41.4598 11.7667 41.8795 12.1863 42.3973 12.1863H51.7707V28.7308ZM53.6457 27.3528V22.5829H60.1359L53.6457 27.3528Z" fill="#759178"/>
</svg>
