<svg width="64" height="64" viewBox="0 0 64 64" fill="none" xmlns="http://www.w3.org/2000/svg">
<g clip-path="url(#clip0)">
<path d="M48.2158 9.5684C47.7417 9.5684 47.3574 9.95259 47.3574 10.4267V17.6754C47.3574 19.3739 48.74 20.7556 50.4394 20.7556H57.6939C58.168 20.7556 58.5523 20.3714 58.5523 19.8972C58.5523 19.4231 58.168 19.0389 57.6939 19.0389H50.4394C49.6866 19.0389 49.0741 18.4272 49.0741 17.6754V10.4267C49.0741 9.9527 48.6898 9.5684 48.2158 9.5684Z" fill="#759178"/>
<path d="M61.4203 15.5676H52.8006V6.95527C52.8006 5.53249 51.6424 4.375 50.219 4.375H41.6024C40.179 4.375 39.0208 5.53249 39.0208 6.95527V15.5676H31.9706C31.4966 15.5676 31.1123 15.9518 31.1123 16.4259C31.1123 16.9 31.4966 17.2842 31.9706 17.2842H39.8791C40.3531 17.2842 40.7374 16.9 40.7374 16.4259V6.95527C40.7374 6.47906 41.1254 6.09167 41.6024 6.09167H50.219C50.6958 6.09167 51.0839 6.47906 51.0839 6.95527V16.4259C51.0839 16.9 51.4682 17.2842 51.9423 17.2842H61.4203C61.8972 17.2842 62.2853 17.6716 62.2853 18.1478V26.7574C62.2853 27.2336 61.8972 27.621 61.4203 27.621H51.9423C51.4682 27.621 51.0839 28.0052 51.0839 28.4793V37.9498C51.0839 38.426 50.6958 38.8134 50.219 38.8134H46.5932C46.1192 38.8134 45.7349 39.1976 45.7349 39.6718C45.7349 40.1459 46.1192 40.5301 46.5932 40.5301H50.219C51.6424 40.5301 52.8006 39.3726 52.8006 37.9498V29.3377H61.4203C62.8438 29.3377 64.002 28.1802 64.002 26.7574V18.1478C64.002 16.7251 62.8439 15.5676 61.4203 15.5676Z" fill="#759178"/>
<path d="M42.6388 39.4638C42.5561 39.1331 42.2951 38.8806 41.9679 38.8147L39.0533 38.2281L40.1892 33.2098C40.2487 32.9467 40.1874 32.6703 40.0234 32.459C39.8593 32.2477 39.6096 32.1245 39.346 32.1245C39.2803 32.1245 39.2148 32.1321 39.1509 32.1473L34.2495 33.3097L33.6766 30.3253C33.6122 29.9903 33.3656 29.723 33.0427 29.6384C32.7197 29.5535 32.3778 29.6665 32.1642 29.9286L28.208 34.7801L29.9465 22.1967C29.9923 21.8646 29.8511 21.5346 29.5817 21.3441C29.3122 21.1536 28.9608 21.1352 28.6737 21.2966L25.4842 23.0907L22.0763 17.2085C21.9205 16.9395 21.6378 16.7748 21.3325 16.7748C21.0271 16.7748 20.7445 16.9396 20.5886 17.2085L17.181 23.0905L13.9914 21.2965C13.7044 21.1351 13.3529 21.1535 13.0835 21.344C12.814 21.5345 12.6728 21.8646 12.7187 22.1965L14.4567 34.7782L10.502 29.9285C10.2883 29.6664 9.94635 29.5534 9.62352 29.6382C9.30053 29.7229 9.05387 29.9902 8.98954 30.3251L8.41663 33.3095L3.51422 32.1472C3.22365 32.0782 2.91865 32.1676 2.70749 32.3838C2.49649 32.5998 2.40925 32.9121 2.47658 33.2098L3.61256 38.2281L0.697945 38.8147C0.370784 38.8806 0.109789 39.133 0.0270408 39.4638C-0.0556243 39.7945 0.0547069 40.1444 0.310619 40.3632L12.0846 50.4297L10.9724 52.6002C10.8159 52.9057 10.8469 53.2767 11.052 53.5505C11.2572 53.8242 11.5989 53.9514 11.9277 53.8756L20.4681 51.9122L22.1977 51.9125C25.5306 52.6791 30.732 53.8756 30.732 53.8756C30.7951 53.8901 30.8586 53.8972 30.9216 53.8972C31.1868 53.8972 31.4418 53.772 31.6076 53.5509C31.8128 53.2772 31.844 52.9066 31.6878 52.6009L30.5785 50.4313L42.3554 40.3632C42.6112 40.1444 42.7216 39.7945 42.6388 39.4638ZM29.0262 49.4516C29.0176 49.457 29.0092 49.4627 29.0007 49.4685C28.6362 49.7209 28.5149 50.2134 28.719 50.6126L29.2896 51.7286L22.1977 50.0973C21.5 50.0001 20.4681 50.0973 20.4681 50.0973L13.3725 51.7284L13.9406 50.6196C14.1299 50.2503 14.0417 49.7959 13.7291 49.5285L2.8114 40.1942L4.82395 39.7891C5.05395 39.7428 5.25577 39.6029 5.38311 39.4015C5.51052 39.2 5.55252 38.9542 5.4996 38.7203L4.47471 34.1927L8.89762 35.2414C9.12595 35.2955 9.36611 35.2525 9.56269 35.122C9.75944 34.9915 9.8961 34.785 9.94118 34.5495L10.3368 32.4891L15.074 38.2985C15.3215 38.6021 15.7358 38.7008 16.089 38.5401C16.4421 38.3795 16.6482 37.9986 16.5941 37.607L14.6733 23.7006L17.0815 25.0552C17.4904 25.2851 18.0037 25.1417 18.2417 24.7308L21.3325 19.3959L24.4232 24.7308C24.6612 25.1416 25.1746 25.2851 25.5835 25.0552L27.9916 23.7007L26.0699 37.6089C26.0157 38.0005 26.2219 38.3815 26.575 38.5421C26.9281 38.7028 27.3424 38.6041 27.5901 38.3005L32.329 32.4891L32.7247 34.5497C32.7698 34.7852 32.9065 34.9918 33.1032 35.1222C33.2999 35.2526 33.5399 35.2957 33.7683 35.2415L38.1912 34.1927L37.1663 38.7205C37.1134 38.9544 37.1554 39.2001 37.2828 39.4016C37.4102 39.6031 37.6121 39.743 37.842 39.7893L39.8544 40.1944L29.0262 49.4516Z" fill="#759178"/>
</g>
<defs>
<clipPath id="clip0">
<rect width="64" height="64" fill="white"/>
</clipPath>
</defs>
</svg>
