<svg width="64" height="64" viewBox="0 0 64 64" fill="none" xmlns="http://www.w3.org/2000/svg">
<path d="M59.46 2.40143H34.1875C33.6696 2.40143 33.25 2.82117 33.25 3.33892C33.25 3.85667 33.6696 4.27641 34.1875 4.27641H59.46C60.9295 4.27641 62.125 5.4719 62.125 6.94139V44.1905C62.125 45.66 60.9295 46.8555 59.46 46.8555C57.9771 46.8555 6.00558 46.8555 4.53996 46.8555C3.07048 46.8555 1.87511 45.66 1.87511 44.1905V6.94139C1.87511 5.4719 3.07048 4.27641 4.53996 4.27641H29.8126C30.3305 4.27641 30.7501 3.85667 30.7501 3.33892C30.7501 2.82117 30.3305 2.40143 29.8126 2.40143H4.53984C2.03661 2.40143 0 4.43804 0 6.94139V44.1905C0 46.6938 2.03661 48.7304 4.53984 48.7304H25.2447V51.4524C25.2447 52.5947 24.6951 53.6708 23.8099 54.2612L21.4668 55.8241H19.604C18.3979 55.8241 17.4166 56.8055 17.4166 58.0116V59.4111C17.4166 60.6172 18.3979 61.5986 19.604 61.5986H44.3957C45.6018 61.5986 46.5831 60.6172 46.5831 59.4111V58.0116C46.5831 56.8055 45.6018 55.8241 44.3957 55.8241H42.5329L40.1898 54.2612C39.3048 53.6708 38.7549 52.5947 38.7549 51.4524V48.7304H59.4598C61.9631 48.7304 63.9998 46.6938 63.9998 44.1905V6.94139C64 4.43804 61.9634 2.40143 59.46 2.40143ZM44.3958 57.6991C44.5682 57.6991 44.7083 57.8392 44.7083 58.0116V59.4111C44.7083 59.5835 44.5682 59.7236 44.3958 59.7236H19.6041C19.4318 59.7236 19.2917 59.5835 19.2917 59.4111V58.0116C19.2917 57.8392 19.4318 57.6991 19.6041 57.6991H44.3958ZM39.1494 55.821L39.1542 55.8241H24.8458L24.8506 55.821C26.2714 54.8733 27.1197 53.2403 27.1197 51.4525V48.7306H36.8802V51.4525C36.8802 53.24 37.7286 54.8733 39.1494 55.821Z" fill="#759178"/>
<path fill-rule="evenodd" clip-rule="evenodd" d="M60.1002 25.0327C60.1002 25.5506 59.6806 25.9702 59.1627 25.9702C58.6449 25.9702 58.2252 25.5506 58.2251 25.0327V12.1251H5.77415V42.9562L58.2252 42.956V29.4077C58.2252 28.8898 58.6449 28.4702 59.1627 28.4702C59.6806 28.4702 60.1002 28.8898 60.1002 29.4077V43.3752C60.1002 44.1778 59.4472 44.8309 58.6445 44.8309H5.35515C4.55253 44.8309 3.89941 44.1779 3.89941 43.3752V7.75682C3.89941 6.95421 4.55241 6.30109 5.35515 6.30109H58.6445C59.4471 6.30109 60.1002 6.95408 60.1002 7.75682V25.0327ZM5.59941 9.60011C5.59941 9.15828 5.95759 8.80011 6.39941 8.80011H7.99941C8.44124 8.80011 8.79941 9.15828 8.79941 9.60011C8.79941 10.0419 8.44124 10.4001 7.99941 10.4001H6.39941C5.95759 10.4001 5.59941 10.0419 5.59941 9.60011ZM11.1994 8.80011C10.7576 8.80011 10.3994 9.15828 10.3994 9.60011C10.3994 10.0419 10.7576 10.4001 11.1994 10.4001H57.5994C58.0412 10.4001 58.3994 10.0419 58.3994 9.60011C58.3994 9.15828 58.0412 8.80011 57.5994 8.80011H11.1994Z" fill="#759178"/>
<path d="M19.9822 35.7558C19.9822 36.2013 20.3432 36.5623 20.7888 36.5623H25.1132C26.6778 36.5623 27.9508 35.2894 27.9508 33.7248V20.4376C27.9508 18.873 26.6778 17.6 25.1132 17.6H13.238C11.6733 17.6 10.4004 18.873 10.4004 20.4376V33.7246C10.4004 35.2893 11.6733 36.5622 13.238 36.5622H17.5625C18.0079 36.5622 18.3691 36.2012 18.3691 35.7556C18.3691 35.3101 18.008 34.9491 17.5625 34.9491H13.9551C14.0682 32.6791 14.7354 30.9692 17.0612 30.0002C17.443 29.8412 17.7125 29.5031 17.7822 29.0958C17.8512 28.6925 17.7113 28.2882 17.4075 28.0143C16.6753 27.3543 16.3488 26.6349 16.3488 25.6814C16.3488 24.9332 16.6425 24.2321 17.1756 23.707C17.7086 23.1821 18.4157 22.9029 19.1635 22.9106C19.1716 22.9108 19.1799 22.9108 19.188 22.9106C19.9383 22.8976 20.6429 23.1821 21.1758 23.707C21.7089 24.2321 22.0025 24.9334 22.0025 25.6814C22.0025 26.6347 21.676 27.3543 20.9437 28.0144C20.6401 28.2882 20.5 28.6925 20.5692 29.0959C20.6389 29.5031 20.9084 29.8411 21.2903 30.0002C23.0224 30.7219 24.2193 31.8683 24.3929 34.9491H20.7888C20.3432 34.9492 19.9822 35.3102 19.9822 35.7558ZM22.4672 28.767C23.2388 27.8963 23.6155 26.8814 23.6155 25.6817C23.6155 24.498 23.151 23.3886 22.3076 22.5578C21.4673 21.7302 20.3575 21.2866 19.1756 21.2977C17.9975 21.2845 16.8839 21.7302 16.0435 22.5579C15.2001 23.3886 14.7356 24.4979 14.7356 25.6817C14.7356 26.8815 15.1122 27.8963 15.8839 28.767C13.7082 29.8654 12.5943 31.7037 12.3673 34.5845C12.1488 34.3631 12.0135 34.0595 12.0135 33.7246V20.4376C12.0135 19.7624 12.5628 19.2131 13.238 19.2131H25.1131C25.7883 19.2131 26.3376 19.7624 26.3376 20.4376V33.7246C26.3376 34.0595 26.2023 34.3631 25.9837 34.5845C25.7567 31.7036 24.6429 29.8654 22.4672 28.767Z" fill="#759178"/>
<path d="M52.1329 18.698H32.8769C32.4315 18.698 32.0703 19.0591 32.0703 19.5046C32.0703 19.9501 32.4315 20.3112 32.8769 20.3112H52.1329C52.5783 20.3112 52.9394 19.9501 52.9394 19.5046C52.9393 19.0591 52.5783 18.698 52.1329 18.698Z" fill="#759178"/>
<path d="M52.1329 23.183H32.8769C32.4315 23.183 32.0703 23.5441 32.0703 23.9896C32.0703 24.4352 32.4315 24.7962 32.8769 24.7962H52.1329C52.5783 24.7962 52.9394 24.4352 52.9394 23.9896C52.9393 23.5441 52.5783 23.183 52.1329 23.183Z" fill="#759178"/>
<path d="M52.9393 28.5096C52.9393 28.0641 52.5782 27.703 52.1327 27.703H32.8769C32.4315 27.703 32.0703 28.0641 32.0703 28.5096C32.0703 28.9551 32.4315 29.3162 32.8769 29.3162H52.1329C52.5783 29.3162 52.9393 28.9551 52.9393 28.5096Z" fill="#759178"/>
<path d="M32.0703 32.9797V35.6122C32.0703 36.0577 32.4315 36.4187 32.8769 36.4187C33.3223 36.4187 33.6835 36.0577 33.6835 35.6122V32.9797C33.6835 32.5342 33.3223 32.1731 32.8769 32.1731C32.4315 32.1731 32.0703 32.5342 32.0703 32.9797Z" fill="#759178"/>
<path d="M35.2793 32.9797V35.6122C35.2793 36.0577 35.6404 36.4187 36.0859 36.4187C36.5314 36.4187 36.8925 36.0577 36.8925 35.6122V32.9797C36.8925 32.5342 36.5314 32.1731 36.0859 32.1731C35.6404 32.1731 35.2793 32.5342 35.2793 32.9797Z" fill="#759178"/>
<path d="M38.4893 32.9797V35.6122C38.4893 36.0577 38.8503 36.4187 39.2959 36.4187C39.7414 36.4187 40.1024 36.0577 40.1024 35.6122V32.9797C40.1024 32.5342 39.7413 32.1731 39.2959 32.1731C38.8504 32.1731 38.4893 32.5342 38.4893 32.9797Z" fill="#759178"/>
<path d="M44.9062 32.9797V35.6122C44.9062 36.0577 45.2674 36.4187 45.7128 36.4187C46.1582 36.4187 46.5194 36.0577 46.5194 35.6122V32.9797C46.5194 32.5342 46.1584 32.1731 45.7128 32.1731C45.2674 32.1731 44.9062 32.5342 44.9062 32.9797Z" fill="#759178"/>
<path d="M41.6982 32.9797V35.6122C41.6982 36.0577 42.0594 36.4187 42.5048 36.4187C42.9502 36.4187 43.3114 36.0577 43.3114 35.6122V32.9797C43.3114 32.5342 42.9502 32.1731 42.5048 32.1731C42.0594 32.1731 41.6982 32.5342 41.6982 32.9797Z" fill="#759178"/>
<path d="M48.1152 32.9797V35.6122C48.1152 36.0577 48.4764 36.4187 48.9218 36.4187C49.3672 36.4187 49.7284 36.0577 49.7284 35.6122V32.9797C49.7284 32.5342 49.3672 32.1731 48.9218 32.1731C48.4763 32.1731 48.1152 32.5342 48.1152 32.9797Z" fill="#759178"/>
<path d="M52.9374 32.9797C52.9374 32.5342 52.5762 32.1731 52.1308 32.1731C51.6854 32.1731 51.3242 32.5342 51.3242 32.9797V35.6122C51.3242 36.0577 51.6854 36.4187 52.1308 36.4187C52.5762 36.4187 52.9374 36.0577 52.9374 35.6122V32.9797Z" fill="#759178"/>
</svg>
