<svg display="none" xmlns="http://www.w3.org/2000/svg">
	<symbol id="facebook" viewBox="0 0 8 14">
		<path d="M7.63514 2.3239L6.3173 2.32448C5.28403 2.32448 5.08398 2.81551 5.08398 3.53612V5.12501H7.54828L7.54741 7.61375H5.08398V14H2.51362V7.61375H0.364746V5.12501H2.51362V3.2898C2.51362 1.15984 3.81473 0 5.71483 0L7.63528 0.00305528L7.63514 2.3239Z"/>
	</symbol>

	<symbol id="twitter" viewBox="0 0 14 12">
		<path d="M13.9837 1.65641C13.9636 1.63275 13.9305 1.62472 13.9023 1.63763C13.4837 1.82332 13.0434 1.95681 12.5898 2.03567C13.0713 1.67348 13.4301 1.1719 13.614 0.596773C13.6229 0.569243 13.6138 0.539131 13.5912 0.521208C13.5686 0.503284 13.5372 0.50099 13.5124 0.515759C12.9701 0.837379 12.3828 1.06408 11.7659 1.18983C11.2193 0.622583 10.4561 0.298096 9.66614 0.298096C8.05961 0.298096 6.75277 1.60494 6.75277 3.21132C6.75277 3.40561 6.77156 3.59803 6.80884 3.78487C4.58374 3.6475 2.50317 2.57926 1.08851 0.844118C1.07402 0.826338 1.05208 0.816444 1.02914 0.818738C1.00634 0.820459 0.985983 0.833364 0.974512 0.853008C0.716413 1.29579 0.580051 1.80238 0.580051 2.31772C0.580051 3.21088 0.985839 4.04598 1.67683 4.59702C1.32108 4.55429 0.973651 4.4423 0.660348 4.26837C0.63927 4.25647 0.61303 4.25661 0.591952 4.2688C0.570874 4.28085 0.557539 4.30322 0.556965 4.32759L0.556678 4.36487C0.556678 5.64762 1.40195 6.77394 2.60455 7.1479C2.2878 7.19894 1.95916 7.1955 1.63611 7.13384C1.6123 7.1294 1.58735 7.13757 1.57101 7.15593C1.5548 7.17428 1.54936 7.19995 1.55681 7.22317C1.91743 8.34877 2.91943 9.13812 4.08575 9.23649C3.11286 9.94927 1.96289 10.3248 0.747815 10.3248C0.523986 10.3248 0.298579 10.3115 0.0777614 10.2855C0.046216 10.2819 0.0149574 10.3007 0.00405987 10.331C-0.00683764 10.3615 0.00477681 10.3956 0.0320206 10.413C1.34689 11.2563 2.86724 11.7018 4.42888 11.7018C9.53709 11.7018 12.5895 7.55239 12.5895 3.54096C12.5895 3.42927 12.5874 3.31814 12.5829 3.2073C13.134 2.80424 13.607 2.31084 13.9884 1.73972C14.0055 1.7142 14.0036 1.68021 13.9837 1.65641Z"/>
	</symbol>

	<symbol id="youtube" viewBox="0 0 14 10">
		<path d="M13.7581 1.69056C13.5867 0.946011 12.9777 0.396706 12.2446 0.314765C10.5085 0.120969 8.75132 0.119957 7.00224 0.120969C5.25287 0.119957 3.49541 0.120969 1.75934 0.314765C1.02664 0.396706 0.418085 0.946011 0.246689 1.69056C0.00274581 2.75087 0 3.9083 0 4.99998C0 6.09165 0 7.24894 0.243943 8.30911C0.41505 9.05351 1.02375 9.60282 1.75688 9.6849C3.49281 9.87884 5.25013 9.87985 6.99949 9.87884C8.74915 9.87985 10.506 9.87884 12.2418 9.6849C12.9745 9.60296 13.5836 9.05365 13.755 8.30911C13.9991 7.24879 14 6.09151 14 4.99998C14 3.9083 14.002 2.75087 13.7581 1.69056ZM5.19333 7.17292C5.19333 5.62429 5.19333 4.09184 5.19333 2.54306C6.67708 3.31723 8.151 4.0862 9.64414 4.86514C8.15562 5.63715 6.68098 6.40149 5.19333 7.17292Z"/>
	</symbol>

	<symbol id="insta" viewBox="0 0 14 14">
		<g>
			<path d="M10.1364 0H3.86339C1.73312 0 0 1.7332 0 3.86347V10.1364C0 12.2668 1.73312 13.9999 3.86339 13.9999H10.1364C12.2668 13.9999 13.9999 12.2667 13.9999 10.1364V3.86347C14 1.7332 12.2668 0 10.1364 0ZM12.7579 10.1364C12.7579 11.5819 11.5819 12.7578 10.1364 12.7578H3.86339C2.41803 12.7579 1.24214 11.5819 1.24214 10.1364V3.86347C1.24214 2.41812 2.41803 1.24214 3.86339 1.24214H10.1364C11.5818 1.24214 12.7578 2.41812 12.7578 3.86347V10.1364H12.7579Z"/>
			<path d="M7 3.39258C5.01084 3.39258 3.39258 5.01084 3.39258 7C3.39258 8.98908 5.01084 10.6073 7 10.6073C8.98917 10.6073 10.6074 8.98908 10.6074 7C10.6074 5.01084 8.98917 3.39258 7 3.39258ZM7 9.36504C5.69584 9.36504 4.63472 8.30408 4.63472 6.99992C4.63472 5.69567 5.69576 4.63464 7 4.63464C8.30425 4.63464 9.36529 5.69567 9.36529 6.99992C9.36529 8.30408 8.30417 9.36504 7 9.36504Z"/>
			<path d="M10.7586 2.3396C10.5192 2.3396 10.2841 2.43649 10.1151 2.60625C9.94529 2.77518 9.84766 3.01036 9.84766 3.2505C9.84766 3.4899 9.94537 3.725 10.1151 3.89476C10.2841 4.06369 10.5192 4.16141 10.7586 4.16141C10.9987 4.16141 11.2331 4.06369 11.4028 3.89476C11.5726 3.725 11.6695 3.48982 11.6695 3.2505C11.6695 3.01036 11.5726 2.77518 11.4028 2.60625C11.2339 2.43649 10.9987 2.3396 10.7586 2.3396Z"/>
		</g>
	</symbol>
</svg>