<svg width="14" height="12" viewBox="0 0 14 12" fill="none" xmlns="http://www.w3.org/2000/svg">
<path d="M13.9837 1.65641C13.9636 1.63275 13.9305 1.62472 13.9023 1.63763C13.4837 1.82332 13.0434 1.95681 12.5898 2.03567C13.0713 1.67348 13.4301 1.1719 13.614 0.596773C13.6229 0.569243 13.6138 0.539131 13.5912 0.521208C13.5686 0.503284 13.5372 0.50099 13.5124 0.515759C12.9701 0.837379 12.3828 1.06408 11.7659 1.18983C11.2193 0.622583 10.4561 0.298096 9.66614 0.298096C8.05961 0.298096 6.75277 1.60494 6.75277 3.21132C6.75277 3.40561 6.77156 3.59803 6.80884 3.78487C4.58374 3.6475 2.50317 2.57926 1.08851 0.844118C1.07402 0.826338 1.05208 0.816444 1.02914 0.818738C1.00634 0.820459 0.985983 0.833364 0.974512 0.853008C0.716413 1.29579 0.580051 1.80238 0.580051 2.31772C0.580051 3.21088 0.985839 4.04598 1.67683 4.59702C1.32108 4.55429 0.973651 4.4423 0.660348 4.26837C0.63927 4.25647 0.61303 4.25661 0.591952 4.2688C0.570874 4.28085 0.557539 4.30322 0.556965 4.32759L0.556678 4.36487C0.556678 5.64762 1.40195 6.77394 2.60455 7.1479C2.2878 7.19894 1.95916 7.1955 1.63611 7.13384C1.6123 7.1294 1.58735 7.13757 1.57101 7.15593C1.5548 7.17428 1.54936 7.19995 1.55681 7.22317C1.91743 8.34877 2.91943 9.13812 4.08575 9.23649C3.11286 9.94927 1.96289 10.3248 0.747815 10.3248C0.523986 10.3248 0.298579 10.3115 0.0777614 10.2855C0.046216 10.2819 0.0149574 10.3007 0.00405987 10.331C-0.00683764 10.3615 0.00477681 10.3956 0.0320206 10.413C1.34689 11.2563 2.86724 11.7018 4.42888 11.7018C9.53709 11.7018 12.5895 7.55239 12.5895 3.54096C12.5895 3.42927 12.5874 3.31814 12.5829 3.2073C13.134 2.80424 13.607 2.31084 13.9884 1.73972C14.0055 1.7142 14.0036 1.68021 13.9837 1.65641Z" fill="white"/>
</svg>
