<svg width="14" height="10" viewBox="0 0 14 10" fill="none" xmlns="http://www.w3.org/2000/svg">
<path d="M13.7581 1.69056C13.5867 0.946011 12.9777 0.396706 12.2446 0.314765C10.5085 0.120969 8.75132 0.119957 7.00224 0.120969C5.25287 0.119957 3.49541 0.120969 1.75934 0.314765C1.02664 0.396706 0.418085 0.946011 0.246689 1.69056C0.00274581 2.75087 0 3.9083 0 4.99998C0 6.09165 0 7.24894 0.243943 8.30911C0.41505 9.05351 1.02375 9.60282 1.75688 9.6849C3.49281 9.87884 5.25013 9.87985 6.99949 9.87884C8.74915 9.87985 10.506 9.87884 12.2418 9.6849C12.9745 9.60296 13.5836 9.05365 13.755 8.30911C13.9991 7.24879 14 6.09151 14 4.99998C14 3.9083 14.002 2.75087 13.7581 1.69056ZM5.19333 7.17292C5.19333 5.62429 5.19333 4.09184 5.19333 2.54306C6.67708 3.31723 8.151 4.0862 9.64414 4.86514C8.15562 5.63715 6.68098 6.40149 5.19333 7.17292Z" fill="white"/>
</svg>
